<svg width="89" height="76" viewBox="0 0 89 76" fill="none" xmlns="http://www.w3.org/2000/svg">
<path d="M72.0123 0.904456C72.3119 1.19157 72.5412 1.52223 72.6816 1.88312C72.815 2.252 72.8861 2.62534 72.9207 2.95867C72.991 3.62356 72.9136 4.12489 72.9136 4.12489C72.9136 4.12489 72.4043 4.14267 71.7741 4.02445C71.4585 3.96489 71.1136 3.87244 70.7848 3.72222C70.447 3.58089 70.0994 3.40755 69.8212 3.14C69.2585 2.612 69.0168 1.84667 68.8994 1.19957C68.7848 0.554236 68.8017 0.0342346 68.8017 0.0342346C68.8017 0.0342346 69.2923 -0.0422022 69.943 0.033353C70.5919 0.105353 71.407 0.334681 72.0123 0.904456Z" fill="white"/>
<path d="M77.0825 3.69185C77.2159 2.80119 76.8665 2.00208 76.5305 1.3932C76.1865 0.790533 75.823 0.411865 75.823 0.411865C75.823 0.411865 75.4194 0.763869 74.9981 1.33987C74.5768 1.91409 74.1341 2.70696 74.0408 3.56474C73.9394 4.4314 74.2381 5.17185 74.5003 5.75229C74.7581 6.33718 75.055 6.70606 75.055 6.70606C75.055 6.70606 75.4914 6.39228 75.9652 5.86251C76.4399 5.33096 76.9501 4.5834 77.0825 3.69185Z" fill="white"/>
<path d="M77.2525 7.61899C77.0996 8.43676 77.2027 9.28031 77.4196 9.8732C77.6241 10.4741 77.8872 10.8679 77.8872 10.8679C77.8872 10.8679 78.3556 10.6056 78.8845 10.1336C79.4125 9.66253 79.9992 8.97987 80.2187 8.11676C80.4232 7.26521 80.2827 6.35411 79.9734 5.74344C79.6872 5.115 79.3583 4.70435 79.3583 4.70435C79.3583 4.70435 78.9165 5.01012 78.4356 5.5319C77.9547 6.05189 77.4312 6.78522 77.2525 7.61899Z" fill="white"/>
<path d="M79.9619 12.0252C79.3592 13.6705 80.265 15.3078 80.265 15.3078C80.265 15.3078 82.2579 14.4954 82.8632 12.8501C83.1654 12.0252 83.0579 11.1407 82.8757 10.4687C82.7832 10.1327 82.6765 9.8483 82.5859 9.65185C82.4845 9.46163 82.4125 9.35229 82.4125 9.35229C82.4125 9.35229 81.9388 9.60652 81.4045 10.0687C80.8783 10.5247 80.2641 11.1994 79.9619 12.0252Z" fill="white"/>
<path d="M82.1504 16.7112C81.7708 17.4926 81.7824 18.2997 81.8632 18.9254C81.9104 19.5628 82.0668 20.0099 82.0668 20.0099C82.0668 20.0099 84.1361 19.4268 84.9832 17.8383C85.3797 17.0526 85.3397 16.1734 85.2223 15.4908C85.1006 14.8081 84.8872 14.3281 84.8872 14.3281C84.8872 14.3281 82.9015 15.1468 82.1504 16.7112Z" fill="white"/>
<path d="M83.8354 21.6019C83.4149 22.3237 83.2523 23.1477 83.2514 23.7814C83.2434 24.4161 83.3616 24.8748 83.3616 24.8748C83.3616 24.8748 85.4843 24.5281 86.4727 23.0508C86.9562 22.313 87.11 21.4117 87.0238 20.7326C86.9625 20.0455 86.7918 19.5486 86.7918 19.5486C86.7918 19.5486 84.726 20.1397 83.8354 21.6019Z" fill="white"/>
<path d="M84.9372 26.6546C83.8226 28.0084 84.1337 29.8519 84.1337 29.8519C84.1337 29.8519 86.283 29.7453 87.4003 28.3915C87.9585 27.7133 88.1497 26.8422 88.2012 26.1489C88.2679 25.4502 88.1292 24.9426 88.1292 24.9426C88.1292 24.9426 87.5977 25.0262 86.9408 25.2857C86.291 25.5417 85.5035 25.9737 84.9372 26.6546Z" fill="white"/>
<path d="M85.4511 31.8C84.836 32.4115 84.5702 33.1769 84.4511 33.7955C84.2831 34.4124 84.2822 34.8862 84.2822 34.8862C84.2822 34.8862 84.8182 34.9137 85.5204 34.7964C86.2227 34.6791 87.0911 34.4142 87.7542 33.8017C88.3773 33.1902 88.6387 32.3484 88.7524 31.6631C88.8644 30.9778 88.8218 30.4551 88.8218 30.4551C88.8218 30.4551 86.6778 30.5706 85.4511 31.8Z" fill="white"/>
<path d="M85.4152 36.9728C84.777 37.5142 84.3673 38.2395 84.145 38.8368C83.9255 39.4333 83.8828 39.9044 83.8828 39.9044C83.8828 39.9044 84.4126 39.9933 85.121 39.9559C85.8286 39.9186 86.7139 39.7533 87.4268 39.2164C88.1379 38.6813 88.5654 37.8804 88.7112 37.2093C88.8819 36.5408 88.8863 36.0137 88.8863 36.0137C88.8863 36.0137 88.3503 35.9764 87.6472 36.0822C86.9459 36.1879 86.0775 36.4324 85.4152 36.9728Z" fill="white"/>
<path d="M84.7866 42.105C84.0329 42.5601 83.5751 43.241 83.3048 43.8143C83.0346 44.3859 82.9502 44.8525 82.9502 44.8525C82.9502 44.8525 83.4684 45.0001 84.1715 45.0428C84.8755 45.0863 85.7671 45.0205 86.5226 44.5645C87.2782 44.1085 87.7511 43.3521 88.0337 42.7148C88.1777 42.3957 88.2702 42.105 88.3039 41.8917C88.3439 41.6792 88.3582 41.5503 88.3582 41.5503C88.3582 41.5503 87.8293 41.4526 87.1235 41.4774C86.4097 41.5023 85.5537 41.6534 84.7866 42.105Z" fill="white"/>
<path d="M83.5531 47.1298C82.7655 47.5013 82.2517 48.1324 81.9335 48.6747C81.7833 48.9484 81.6446 49.1884 81.5566 49.3635C81.4695 49.5404 81.4277 49.6515 81.4277 49.6515C81.4277 49.6515 81.9237 49.8569 82.626 49.9813C83.3157 50.1022 84.2651 50.1564 85.0446 49.7822C85.833 49.4124 86.3717 48.7084 86.7104 48.1004C87.0482 47.4942 87.1868 46.9858 87.1868 46.9858C87.1868 46.9858 86.673 46.8284 85.9619 46.7742C85.2499 46.7173 84.3397 46.7591 83.5531 47.1298Z" fill="white"/>
<path d="M81.7844 51.9894C80.9729 52.2756 80.4262 52.8596 79.988 53.3342C79.5737 53.8196 79.3711 54.2462 79.3711 54.2462C79.3711 54.2462 81.2413 55.3067 82.9551 54.7849C83.8351 54.5342 84.4262 53.8853 84.8137 53.3138C85.2039 52.7422 85.388 52.2498 85.388 52.2498C85.388 52.2498 84.8946 52.0356 84.196 51.9014C83.4982 51.7654 82.5951 51.7058 81.7844 51.9894Z" fill="white"/>
<path d="M79.4999 56.6312C78.667 56.8249 77.9693 57.2916 77.5222 57.7405C77.0679 58.184 76.8262 58.592 76.8262 58.592C76.8262 58.592 78.5684 59.8551 80.3097 59.5138C81.1737 59.3387 81.9097 58.8036 82.3613 58.2818C82.8013 57.7529 83.0288 57.28 83.0288 57.28C83.0288 57.28 81.155 56.2285 79.4999 56.6312Z" fill="white"/>
<path d="M76.6802 60.9654C75.8037 61.048 75.0953 61.4605 74.6029 61.8596C74.1113 62.2569 73.834 62.64 73.834 62.64C73.834 62.64 74.2349 62.9974 74.85 63.3432C75.4651 63.688 76.2962 64.016 77.1735 63.9369C78.0508 63.8551 78.8064 63.3796 79.338 62.928C79.8846 62.4854 80.1442 62.0267 80.1442 62.0267C80.1442 62.0267 79.7104 61.7076 79.0642 61.4232C78.4224 61.144 77.5646 60.8907 76.6802 60.9654Z" fill="white"/>
<path d="M73.3841 64.9538C72.513 64.944 71.7744 65.2863 71.2499 65.6365C70.9904 65.8116 70.7815 65.9885 70.6188 66.1014C70.4633 66.2223 70.3779 66.304 70.3779 66.304C70.3779 66.304 70.7344 66.7049 71.313 67.1236C71.8873 67.5378 72.7077 67.9902 73.5699 67.9902C74.4419 68.0018 75.2339 67.6027 75.8037 67.2036C76.3743 66.8062 76.7192 66.408 76.7192 66.408C76.7192 66.408 76.3255 66.0454 75.7086 65.6845C75.0926 65.3227 74.2544 64.9627 73.3841 64.9538Z" fill="white"/>
<path d="M71.7426 7.99764C70.931 7.97986 70.2163 7.69365 69.7479 7.36832C69.2723 7.05187 69.0039 6.72387 69.0039 6.72387C69.0039 6.72387 69.3879 6.34788 69.979 5.9621C70.5701 5.5781 71.3701 5.18611 72.2181 5.17367C73.0581 5.16744 73.8208 5.51499 74.3052 5.91232C74.7843 6.31499 75.0572 6.7061 75.0572 6.7061C75.0572 6.7061 74.6377 7.04298 74.0119 7.37009C73.3861 7.6972 72.5532 8.01631 71.7426 7.99764Z" fill="white"/>
<path d="M75.2611 9.01096C76.142 9.06874 76.7518 9.57274 77.2096 10.0092C77.6558 10.4545 77.8913 10.8678 77.8913 10.8678C77.8913 10.8678 77.438 11.1558 76.7758 11.411C76.1136 11.667 75.2433 11.8927 74.4273 11.7923C73.5954 11.7016 73.0327 11.2572 72.5598 10.9123C72.1091 10.5532 71.8691 10.2039 71.8691 10.2039C71.8691 10.2039 72.294 9.87407 72.926 9.55585C73.5598 9.23941 74.4051 8.93629 75.2611 9.01096Z" fill="white"/>
<path d="M77.8222 13.1832C79.4515 13.561 80.264 15.3086 80.264 15.3086C80.264 15.3086 78.3227 16.2259 76.6924 15.849C75.8764 15.6624 75.2987 15.1957 74.9227 14.7699C74.7333 14.5566 74.5991 14.3521 74.5049 14.2046C74.3991 14.0632 74.3467 13.9708 74.3467 13.9708C74.3467 13.9708 74.8045 13.6908 75.4729 13.4455C76.1476 13.1948 77.0116 12.9948 77.8222 13.1832Z" fill="white"/>
<path d="M79.8927 17.6224C80.6909 17.8944 81.2723 18.4837 81.6216 19.0108C81.9389 19.5503 82.0634 20.0099 82.0634 20.0099C82.0634 20.0099 80.0296 20.7059 78.5105 20.1272C77.7265 19.8499 77.1701 19.3326 76.8332 18.8721C76.4918 18.4126 76.3496 18.0126 76.3496 18.0126C76.3496 18.0126 78.2918 17.0837 79.8927 17.6224Z" fill="white"/>
<path d="M81.4875 22.2538C82.2955 22.6014 82.7221 23.2742 83.0004 23.8405C83.2724 24.4085 83.3568 24.876 83.3568 24.876C83.3568 24.876 81.2599 25.34 79.7853 24.6013C79.0368 24.2369 78.6395 23.636 78.3088 23.1534C78.0048 22.6636 77.8955 22.2538 77.8955 22.2538C77.8955 22.2538 79.9266 21.5498 81.4875 22.2538Z" fill="white"/>
<path d="M82.5293 27.0402C83.9417 27.9344 84.1284 29.8518 84.1284 29.8518C84.1284 29.8518 81.9941 30.0775 80.579 29.1824C79.8724 28.738 79.4822 28.1051 79.2688 27.578C79.0724 27.0491 78.9844 26.6349 78.9844 26.6349C78.9844 26.6349 79.5097 26.522 80.2208 26.5104C80.9399 26.4989 81.8333 26.5931 82.5293 27.0402Z" fill="white"/>
<path d="M83.0161 31.9141C83.6819 32.4341 84.025 33.1825 84.1921 33.795C84.3121 34.4092 84.2774 34.8856 84.2774 34.8856C84.2774 34.8856 83.7397 34.8874 83.0472 34.7505C82.3539 34.6154 81.5077 34.3434 80.8881 33.8225C80.2268 33.3017 79.8837 32.6305 79.7166 32.0839C79.5477 31.5372 79.5459 31.1123 79.5459 31.1123C79.5459 31.1123 81.6837 30.8768 83.0161 31.9141Z" fill="white"/>
<path d="M82.9856 36.8108C83.6301 37.4063 83.8274 38.1832 83.8923 38.809C83.9572 39.4347 83.8825 39.9041 83.8825 39.9041C83.8825 39.9041 83.3483 39.8454 82.6728 39.6303C81.9972 39.417 81.1785 39.0499 80.607 38.4605C80.0328 37.8712 79.8399 37.1716 79.6906 36.6072C79.5661 36.0445 79.5999 35.6223 79.5999 35.6223C79.5999 35.6223 80.1368 35.6303 80.8283 35.7779C81.5199 35.9254 82.367 36.217 82.9856 36.8108Z" fill="white"/>
<path d="M82.3928 41.6714C82.9074 42.3238 83.0461 43.1256 83.0568 43.7585C83.0675 44.3914 82.9501 44.8536 82.9501 44.8536C82.9501 44.8536 82.4275 44.7345 81.7759 44.4429C81.1261 44.1532 80.3466 43.6936 79.831 43.0421C79.3164 42.3878 79.1617 41.6616 79.1386 41.0963C79.1306 40.8136 79.151 40.5701 79.1493 40.3932C79.1564 40.2163 79.1741 40.1123 79.1741 40.1123C79.1741 40.1123 79.7066 40.1798 80.3812 40.4056C81.0506 40.6278 81.8923 41.019 82.3928 41.6714Z" fill="white"/>
<path d="M81.2212 46.4257C81.6719 47.1386 81.7376 47.9563 81.6914 48.5892C81.6772 48.9101 81.5981 49.1723 81.5359 49.3572C81.4745 49.543 81.4256 49.6506 81.4256 49.6506C81.4256 49.6506 80.9181 49.4737 80.3128 49.1137C79.6941 48.751 79.0283 48.2257 78.5688 47.5119C78.1163 46.7981 78.0274 46.0541 78.0541 45.4853C78.0808 44.9146 78.2239 44.5164 78.2239 44.5164C78.2239 44.5164 78.7456 44.6452 79.383 44.9421C80.0203 45.2417 80.7714 45.7137 81.2212 46.4257Z" fill="white"/>
<path d="M79.5458 51.0277C79.9253 51.7904 79.9325 52.6277 79.7547 53.2233C79.6009 53.8321 79.3662 54.2455 79.3662 54.2455C79.3662 54.2455 77.44 53.2935 76.7716 51.801C76.4587 51.0668 76.4302 50.3068 76.5058 49.7353C76.5831 49.1673 76.7591 48.7815 76.7591 48.7815C76.7591 48.7815 77.2631 48.9673 77.8658 49.337C78.4676 49.7068 79.1653 50.2633 79.5458 51.0277Z" fill="white"/>
<path d="M77.3858 55.424C77.6836 56.2284 77.5076 57.007 77.3058 57.6053C77.0969 58.1999 76.8258 58.5902 76.8258 58.5902C76.8258 58.5902 75.0187 57.4284 74.5014 55.8595C74.233 55.0728 74.3663 54.3582 74.5085 53.8026C74.6365 53.2382 74.8472 52.8684 74.8472 52.8684C74.8472 52.8684 76.7761 53.8142 77.3858 55.424Z" fill="white"/>
<path d="M74.7121 59.5315C74.8916 60.3439 74.6685 61.1262 74.4019 61.6995C74.1361 62.2755 73.8312 62.6408 73.8312 62.6408C73.8312 62.6408 73.4116 62.3057 72.9521 61.7617C72.4934 61.2168 71.9912 60.4648 71.8117 59.6515C71.6312 58.8364 71.8081 58.1155 72.0339 57.5964C72.2739 57.0871 72.5023 56.7297 72.5023 56.7297C72.5023 56.7297 72.9521 57.0231 73.4614 57.5217C73.9761 58.0213 74.5432 58.7244 74.7121 59.5315Z" fill="white"/>
<path d="M71.5904 63.3058C71.6855 64.1422 71.3868 64.9058 71.0677 65.4533C70.9104 65.7316 70.7459 65.952 70.6037 66.0862C70.4668 66.2267 70.3753 66.3031 70.3753 66.3031C70.3753 66.3031 69.9957 65.9218 69.6082 65.3342C69.2144 64.7449 68.8322 63.9734 68.7273 63.1254C68.6313 62.2871 68.8766 61.5805 69.1495 61.0792C69.4224 60.5796 69.7264 60.2827 69.7264 60.2827C69.7264 60.2827 70.1406 60.6258 70.5833 61.1698C71.0259 61.7174 71.4953 62.4694 71.5904 63.3058Z" fill="white"/>
<path d="M68.1202 68.881L67.5566 68.249L69.9006 66.1636C71.2162 64.929 73.2322 62.8605 75.3184 60.0472C77.0846 57.5379 79.3175 54.1112 80.8606 49.9282C82.4588 45.8055 83.4668 41.3451 83.7761 37.0215C84.1139 32.786 83.7423 28.2296 82.7006 23.8412C82.6552 23.6545 82.6152 23.4652 82.5761 23.2767C82.5095 22.9558 82.4437 22.6358 82.3432 22.3283L81.7317 20.3541C81.481 19.5327 81.2437 18.7567 80.9175 18.0287C80.7779 17.6927 80.649 17.3701 80.5219 17.051C80.2926 16.4812 80.0686 15.9221 79.8321 15.3825L78.6339 13.0243C78.3139 12.3363 77.929 11.723 77.5584 11.1301L76.2633 9.0448C75.7459 8.32836 75.2446 7.65903 74.7948 7.06081L74.1371 6.18081C73.7522 5.68393 73.3753 5.27149 73.0731 4.93993C72.9059 4.75682 72.7593 4.59415 72.6375 4.45015L72.1006 3.84749L72.7335 3.28394L73.2784 3.89549C73.4019 4.04216 73.5415 4.19504 73.6997 4.36838C74.0117 4.71149 74.4011 5.13815 74.8135 5.66881L75.473 6.55147C75.9246 7.15502 76.4313 7.82792 76.9673 8.57369L78.2766 10.6803C78.6615 11.2946 79.0588 11.9301 79.3948 12.6528L80.5984 15.0199C80.849 15.5888 81.0766 16.1559 81.3086 16.7345C81.4348 17.051 81.5646 17.371 81.697 17.6936C82.0401 18.4572 82.2961 19.2954 82.5432 20.1061L83.1512 22.0714C83.2623 22.4092 83.3361 22.7621 83.4063 23.1034C83.4446 23.2838 83.4819 23.4643 83.5246 23.6438C84.5868 28.1194 84.9663 32.7665 84.6214 37.0864C84.3059 41.4891 83.2792 46.0348 81.6535 50.2286C80.0784 54.4979 77.8081 57.985 76.0055 60.5441C73.8757 63.417 71.8215 65.5254 70.4722 66.7894L68.1202 68.881Z" fill="white"/>
<path d="M16.8774 0.904456C16.5778 1.19157 16.3485 1.52223 16.208 1.88312C16.0756 2.252 16.0036 2.62534 15.9689 2.95867C15.8987 3.62356 15.976 4.12489 15.976 4.12489C15.976 4.12489 16.4854 4.14267 17.1165 4.02445C17.4311 3.96489 17.7769 3.87244 18.1049 3.72222C18.4427 3.58089 18.7902 3.40755 19.0693 3.14C19.6311 2.612 19.8738 1.84667 19.9902 1.19957C20.1049 0.554236 20.088 0.0342346 20.088 0.0342346C20.088 0.0342346 19.5982 -0.0422022 18.9467 0.033353C18.2978 0.105353 17.4818 0.334681 16.8774 0.904456Z" fill="white"/>
<path d="M11.8035 3.69185C11.6702 2.80119 12.0195 2.00208 12.3555 1.3932C12.6995 0.790533 13.0631 0.411865 13.0631 0.411865C13.0631 0.411865 13.4675 0.763869 13.8888 1.33987C14.3102 1.91409 14.7528 2.70696 14.8453 3.56474C14.9466 4.4314 14.6488 5.17185 14.3857 5.75229C14.1279 6.33718 13.8311 6.70606 13.8311 6.70606C13.8311 6.70606 13.3955 6.39228 12.9208 5.86251C12.4462 5.33096 11.936 4.5834 11.8035 3.69185Z" fill="white"/>
<path d="M11.6337 7.61899C11.7875 8.43676 11.6835 9.28031 11.4666 9.8732C11.2621 10.4741 10.999 10.8679 10.999 10.8679C10.999 10.8679 10.5306 10.6056 10.0017 10.1336C9.47369 9.66253 8.88702 8.97987 8.66836 8.11676C8.46391 7.26521 8.60436 6.35411 8.91369 5.74344C9.19991 5.115 9.5288 4.70435 9.5288 4.70435C9.5288 4.70435 9.97146 5.01012 10.4515 5.5319C10.9323 6.05189 11.4559 6.78522 11.6337 7.61899Z" fill="white"/>
<path d="M8.92159 12.0252C9.52515 13.6705 8.61937 15.3078 8.61937 15.3078C8.61937 15.3078 6.62561 14.4954 6.02027 12.8501C5.71805 12.0252 5.8265 11.1407 6.00872 10.4687C6.10116 10.1327 6.20694 9.8483 6.29761 9.65185C6.39894 9.46163 6.47183 9.35229 6.47183 9.35229C6.47183 9.35229 6.9456 9.60652 7.47893 10.0687C8.00426 10.5247 8.61848 11.1994 8.92159 12.0252Z" fill="white"/>
<path d="M6.73702 16.7112C7.11657 17.4926 7.10502 18.2997 7.02413 18.9254C6.97702 19.5628 6.82057 20.0099 6.82057 20.0099C6.82057 20.0099 4.75125 19.4268 3.90503 17.8383C3.5077 17.0526 3.54859 16.1734 3.66592 15.4908C3.7877 14.8081 4.00103 14.3281 4.00103 14.3281C4.00103 14.3281 5.98591 15.1468 6.73702 16.7112Z" fill="white"/>
<path d="M5.05726 21.6019C5.47681 22.3237 5.64037 23.1477 5.64037 23.7814C5.64837 24.4161 5.53103 24.8748 5.53103 24.8748C5.53103 24.8748 3.40749 24.5281 2.41905 23.0508C1.93549 22.313 1.78172 21.4117 1.86883 20.7326C1.92927 20.0455 2.10083 19.5486 2.10083 19.5486C2.10083 19.5486 4.16659 20.1397 5.05726 21.6019Z" fill="white"/>
<path d="M3.95106 26.6546C5.06572 28.0084 4.75461 29.8519 4.75461 29.8519C4.75461 29.8519 2.6044 29.7453 1.48796 28.3915C0.929739 27.7133 0.738628 26.8422 0.687073 26.1489C0.620407 25.4502 0.759074 24.9426 0.759074 24.9426C0.759074 24.9426 1.29063 25.0262 1.94751 25.2857C2.59729 25.5417 3.38573 25.9737 3.95106 26.6546Z" fill="white"/>
<path d="M3.43722 31.8C4.05233 32.4115 4.31811 33.1769 4.43722 33.7955C4.60522 34.4124 4.60699 34.8862 4.60699 34.8862C4.60699 34.8862 4.07011 34.9137 3.36789 34.7964C2.66567 34.6791 1.79723 34.4142 1.13412 33.8017C0.511904 33.1902 0.249682 32.3484 0.135905 31.6631C0.0239054 30.9778 0.0665726 30.4551 0.0665726 30.4551C0.0665726 30.4551 2.21056 30.5706 3.43722 31.8Z" fill="white"/>
<path d="M3.47198 36.9728C4.1102 37.5142 4.51909 38.2395 4.74131 38.8368C4.96086 39.4333 5.00353 39.9044 5.00353 39.9044C5.00353 39.9044 4.47376 39.9933 3.76531 39.9559C3.05865 39.9186 2.17243 39.7533 1.45955 39.2164C0.748439 38.6813 0.320886 37.8804 0.175109 37.2093C0.00444317 36.5408 0 36.0137 0 36.0137C0 36.0137 0.536887 35.9764 1.23911 36.0822C1.94044 36.1879 2.80887 36.4324 3.47198 36.9728Z" fill="white"/>
<path d="M4.09977 42.105C4.85355 42.5601 5.31221 43.241 5.58154 43.8143C5.85265 44.3859 5.93621 44.8525 5.93621 44.8525C5.93621 44.8525 5.41799 45.0001 4.71399 45.0428C4.01 45.0863 3.11844 45.0205 2.36289 44.5645C1.60823 44.1085 1.13445 43.3521 0.851788 42.7148C0.707789 42.3957 0.614455 42.105 0.581566 41.8917C0.541567 41.6792 0.527344 41.5503 0.527344 41.5503C0.527344 41.5503 1.05623 41.4526 1.762 41.4774C2.47667 41.5023 3.33355 41.6534 4.09977 42.105Z" fill="white"/>
<path d="M5.33306 47.1298C6.12062 47.5013 6.63439 48.1324 6.95261 48.6747C7.10372 48.9484 7.2415 49.1884 7.3295 49.3635C7.41661 49.5404 7.45839 49.6515 7.45839 49.6515C7.45839 49.6515 6.96239 49.8569 6.26017 49.9813C5.5704 50.1022 4.62107 50.1564 3.84152 49.7822C3.05308 49.4124 2.51441 48.7084 2.17664 48.1004C1.83797 47.4942 1.7002 46.9858 1.7002 46.9858C1.7002 46.9858 2.21308 46.8284 2.92419 46.7742C3.63707 46.7173 4.54729 46.7591 5.33306 47.1298Z" fill="white"/>
<path d="M7.10558 51.9896C7.91802 52.2758 8.46379 52.8598 8.9029 53.3345C9.31624 53.8198 9.51979 54.2465 9.51979 54.2465C9.51979 54.2465 7.64958 55.3069 5.93581 54.7851C5.05492 54.5345 4.46381 53.8856 4.07715 53.314C3.68604 52.7425 3.50293 52.25 3.50293 52.25C3.50293 52.25 3.99537 52.0358 4.69404 51.9016C5.39181 51.7656 6.29492 51.706 7.10558 51.9896Z" fill="white"/>
<path d="M9.38825 56.6312C10.2202 56.8249 10.9189 57.2916 11.366 57.7405C11.8202 58.184 12.0611 58.592 12.0611 58.592C12.0611 58.592 10.3198 59.8551 8.57847 59.5138C7.71448 59.3387 6.97848 58.8036 6.52604 58.2818C6.08604 57.7529 5.85938 57.28 5.85938 57.28C5.85938 57.28 7.73314 56.2285 9.38825 56.6312Z" fill="white"/>
<path d="M12.212 60.9654C13.0885 61.048 13.7969 61.4605 14.2885 61.8596C14.78 62.2569 15.0582 62.64 15.0582 62.64C15.0582 62.64 14.6565 62.9974 14.0422 63.3432C13.4262 63.688 12.5951 64.016 11.7178 63.9369C10.8405 63.8551 10.0858 63.3796 9.55337 62.928C9.00582 62.4854 8.74805 62.0267 8.74805 62.0267C8.74805 62.0267 9.18093 61.7076 9.82804 61.4232C10.4689 61.144 11.3267 60.8907 12.212 60.9654Z" fill="white"/>
<path d="M15.5059 64.9538C16.3761 64.944 17.1148 65.2863 17.6401 65.6365C17.8997 65.8116 18.1077 65.9885 18.2703 66.1014C18.4268 66.2223 18.5121 66.304 18.5121 66.304C18.5121 66.304 18.1548 66.7049 17.577 67.1236C17.0028 67.5378 16.1823 67.9902 15.3192 67.9902C14.4481 68.0018 13.6553 67.6027 13.0855 67.2036C12.5157 66.8062 12.1699 66.408 12.1699 66.408C12.1699 66.408 12.5637 66.0454 13.1815 65.6845C13.7975 65.3227 14.6348 64.9627 15.5059 64.9538Z" fill="white"/>
<path d="M17.1467 7.99764C17.9582 7.97986 18.672 7.69365 19.1404 7.36832C19.6169 7.05187 19.8844 6.72387 19.8844 6.72387C19.8844 6.72387 19.5004 6.34788 18.9093 5.9621C18.3182 5.5781 17.5191 5.18611 16.6702 5.17367C15.8302 5.16744 15.0676 5.51499 14.5831 5.91232C14.1031 6.31499 13.832 6.7061 13.832 6.7061C13.832 6.7061 14.2507 7.04298 14.8774 7.37009C15.5031 7.6972 16.3351 8.01631 17.1467 7.99764Z" fill="white"/>
<path d="M13.6292 9.01096C12.7483 9.06874 12.1395 9.57274 11.6817 10.0092C11.2364 10.4545 10.999 10.8678 10.999 10.8678C10.999 10.8678 11.4532 11.1558 12.1155 11.411C12.7777 11.667 13.647 11.8927 14.463 11.7923C15.295 11.7016 15.8577 11.2572 16.3314 10.9123C16.7812 10.5532 17.0212 10.2039 17.0212 10.2039C17.0212 10.2039 16.5981 9.87407 15.9643 9.55585C15.3306 9.23941 14.4852 8.93629 13.6292 9.01096Z" fill="white"/>
<path d="M11.0658 13.1832C9.43558 13.561 8.62402 15.3086 8.62402 15.3086C8.62402 15.3086 10.5645 16.2259 12.1956 15.849C13.0116 15.6624 13.5893 15.1957 13.9653 14.7699C14.1538 14.5566 14.2889 14.3521 14.384 14.2046C14.4889 14.0632 14.5413 13.9708 14.5413 13.9708C14.5413 13.9708 14.0836 13.6908 13.4151 13.4455C12.7396 13.1948 11.8756 12.9948 11.0658 13.1832Z" fill="white"/>
<path d="M8.99283 17.6224C8.19462 17.8944 7.61329 18.4837 7.26484 19.0108C6.94662 19.5503 6.82129 20.0099 6.82129 20.0099C6.82129 20.0099 8.85506 20.7059 10.3742 20.1272C11.159 19.8499 11.7146 19.3326 12.0515 18.8721C12.3928 18.4126 12.535 18.0126 12.535 18.0126C12.535 18.0126 10.5946 17.0837 8.99283 17.6224Z" fill="white"/>
<path d="M7.3996 22.2538C6.5916 22.6014 6.16494 23.2742 5.88672 23.8405C5.61472 24.4085 5.53027 24.876 5.53027 24.876C5.53027 24.876 7.62715 25.34 9.1027 24.6013C9.85025 24.2369 10.2485 23.636 10.5782 23.1534C10.8822 22.6636 10.9925 22.2538 10.9925 22.2538C10.9925 22.2538 8.96048 21.5498 7.3996 22.2538Z" fill="white"/>
<path d="M6.35407 27.04C4.94164 27.9342 4.75586 29.8515 4.75586 29.8515C4.75586 29.8515 6.89007 30.0773 8.30429 29.1822C9.01095 28.7377 9.40117 28.1048 9.6145 27.5777C9.81095 27.0488 9.89894 26.6346 9.89894 26.6346C9.89894 26.6346 9.3745 26.5217 8.66251 26.5102C7.9434 26.4986 7.05007 26.5928 6.35407 27.04Z" fill="white"/>
<path d="M5.86888 31.9141C5.2031 32.4341 4.86088 33.1825 4.69288 33.795C4.57288 34.4092 4.60844 34.8856 4.60844 34.8856C4.60844 34.8856 5.14621 34.8874 5.83777 34.7505C6.53021 34.6154 7.37731 34.3434 7.99687 33.8225C8.65909 33.3017 9.0013 32.6305 9.16841 32.0839C9.3373 31.5372 9.33908 31.1123 9.33908 31.1123C9.33908 31.1123 7.20131 30.8768 5.86888 31.9141Z" fill="white"/>
<path d="M5.9027 36.8108C5.25826 37.4063 5.06093 38.1832 4.99604 38.809C4.93115 39.4347 5.00671 39.9041 5.00671 39.9041C5.00671 39.9041 5.54093 39.8454 6.21559 39.6303C6.89203 39.417 7.71069 39.0499 8.28135 38.4605C8.85557 37.8712 9.04846 37.1716 9.19868 36.6072C9.32224 36.0445 9.28935 35.6223 9.28935 35.6223C9.28935 35.6223 8.75247 35.6303 8.06003 35.7779C7.36847 35.9254 6.52136 36.217 5.9027 36.8108Z" fill="white"/>
<path d="M6.49377 41.6714C5.9791 42.3238 5.84133 43.1256 5.83066 43.7585C5.82088 44.3914 5.93733 44.8536 5.93733 44.8536C5.93733 44.8536 6.46088 44.7345 7.11065 44.4429C7.76043 44.1532 8.53998 43.6936 9.05553 43.0421C9.57109 42.3878 9.72486 41.6616 9.74797 41.0963C9.75597 40.8136 9.73553 40.5701 9.73731 40.3932C9.7302 40.2163 9.71242 40.1123 9.71242 40.1123C9.71242 40.1123 9.17998 40.1798 8.5062 40.4056C7.83598 40.6278 6.99421 41.019 6.49377 41.6714Z" fill="white"/>
<path d="M7.66738 46.4259C7.21582 47.1388 7.15094 47.9566 7.19716 48.5895C7.21138 48.9104 7.29049 49.1726 7.35271 49.3575C7.41404 49.5433 7.46293 49.6508 7.46293 49.6508C7.46293 49.6508 7.97049 49.4739 8.57582 49.1139C9.19448 48.7513 9.86026 48.2259 10.3198 47.5122C10.7731 46.7984 10.8611 46.0544 10.8345 45.4855C10.8087 44.9148 10.6656 44.5166 10.6656 44.5166C10.6656 44.5166 10.1429 44.6455 9.50648 44.9424C8.86915 45.2419 8.11715 45.7139 7.66738 46.4259Z" fill="white"/>
<path d="M9.34081 51.0277C8.96126 51.7904 8.95414 52.6277 9.13281 53.2233C9.28659 53.8321 9.52036 54.2455 9.52036 54.2455C9.52036 54.2455 11.4466 53.2935 12.1141 51.801C12.427 51.0668 12.4555 50.3068 12.3799 49.7353C12.3026 49.1673 12.1266 48.7815 12.1266 48.7815C12.1266 48.7815 11.6226 48.9673 11.0199 49.337C10.419 49.7068 9.72125 50.2633 9.34081 51.0277Z" fill="white"/>
<path d="M11.5019 55.424C11.2041 56.2284 11.3792 57.007 11.581 57.6053C11.7908 58.1999 12.0619 58.5902 12.0619 58.5902C12.0619 58.5902 13.8681 57.4284 14.3854 55.8595C14.6548 55.0728 14.5205 54.3582 14.3783 53.8026C14.2503 53.2382 14.0405 52.8684 14.0405 52.8684C14.0405 52.8684 12.1108 53.8142 11.5019 55.424Z" fill="white"/>
<path d="M14.1731 59.5315C13.9935 60.3439 14.2175 61.1262 14.4833 61.6995C14.7499 62.2755 15.0548 62.6408 15.0548 62.6408C15.0548 62.6408 15.4744 62.3057 15.933 61.7617C16.3926 61.2168 16.8939 60.4648 17.0744 59.6515C17.2539 58.8364 17.0779 58.1155 16.8521 57.5964C16.6113 57.0871 16.3837 56.7297 16.3837 56.7297C16.3837 56.7297 15.9339 57.0231 15.4237 57.5217C14.909 58.0213 14.3419 58.7244 14.1731 59.5315Z" fill="white"/>
<path d="M17.2953 63.3058C17.2002 64.1422 17.4989 64.9058 17.818 65.4533C17.9762 65.7316 18.1397 65.952 18.2828 66.0862C18.4197 66.2267 18.5113 66.3031 18.5113 66.3031C18.5113 66.3031 18.89 65.9218 19.2784 65.3342C19.6713 64.7449 20.0544 63.9734 20.1593 63.1254C20.2544 62.2871 20.0108 61.5805 19.7362 61.0792C19.4642 60.5796 19.1593 60.2827 19.1593 60.2827C19.1593 60.2827 18.7451 60.6258 18.3024 61.1698C17.8597 61.7174 17.3895 62.4694 17.2953 63.3058Z" fill="white"/>
<path d="M20.7707 68.8808L18.4276 66.7955C17.0703 65.5252 15.016 63.4168 12.8916 60.5528C11.0836 57.9839 8.81341 54.4977 7.23564 50.2213C5.61165 46.0347 4.58588 41.4889 4.27033 37.0827C3.92544 32.7672 4.3041 28.1201 5.36632 23.6463C5.40987 23.465 5.44721 23.2837 5.48454 23.1041C5.55565 22.7628 5.62943 22.4108 5.74232 22.0659L6.34765 20.1068C6.59476 19.2961 6.85165 18.4579 7.1992 17.6819C7.3272 17.3717 7.4552 17.0517 7.58231 16.7353C7.81431 16.1575 8.04186 15.5895 8.28186 15.0428L9.50141 12.6402C9.83119 11.9308 10.2294 11.2953 10.6134 10.6811L11.9067 8.59842C12.4605 7.82864 12.9654 7.15487 13.4169 6.5522L14.0703 5.67753C14.4881 5.13887 14.8774 4.7122 15.1903 4.36909C15.3485 4.19576 15.4872 4.04288 15.6027 3.90599L16.1574 3.28467L16.7903 3.84821L16.2436 4.46066C16.1307 4.59488 15.9832 4.75665 15.816 4.94065C15.5138 5.27221 15.1369 5.68554 14.7458 6.18953L14.0943 7.06153C13.6454 7.65975 13.1441 8.32908 12.6107 9.06952L11.3316 11.1308C10.961 11.7237 10.577 12.3362 10.2623 13.0117L9.04719 15.4055C8.82142 15.9228 8.59653 16.481 8.36808 17.0517C8.2392 17.3708 8.11031 17.6935 7.97697 18.017C7.64453 18.7566 7.40809 19.5335 7.15742 20.3539L6.54765 22.3219C6.44632 22.6366 6.37965 22.9557 6.31298 23.2766C6.27387 23.465 6.23476 23.6552 6.18765 23.8437C5.14676 28.2303 4.77521 32.7867 5.11299 37.0187C5.42232 41.3458 6.42943 45.8062 8.02586 49.9218C9.57163 54.112 11.8036 57.5377 13.5752 60.055C15.656 62.8604 17.672 64.9288 18.9956 66.1697L21.3316 68.2488L20.7707 68.8808Z" fill="white"/>
<path d="M27.7852 11.456C28.6438 11.0338 29.322 10.7929 30.4207 9.48267H33.1016V18.0062H34.5025V20.0097H28.4785V18.0062H29.9843V12.4195L28.4785 13.1262L27.7852 11.456Z" fill="white"/>
<path d="M35.1104 14.6939C35.1104 11.5011 36.857 9.28687 39.3566 9.28687C42.3085 9.28687 43.6792 11.4709 43.6792 14.7997C43.6792 18.1437 42.1583 20.1917 39.4321 20.1917C36.9175 20.1908 35.1104 18.3988 35.1104 14.6939ZM40.6525 14.7988C40.6525 13.0068 40.0792 11.7117 39.3414 11.7117C38.7841 11.6957 38.0917 12.8557 38.0917 14.6939C38.0917 16.637 38.8294 17.8566 39.4312 17.8566C40.1254 17.8557 40.6525 16.6362 40.6525 14.7988Z" fill="white"/>
<path d="M44.1299 14.6939C44.1299 11.5011 45.8765 9.28687 48.3761 9.28687C51.3281 9.28687 52.6987 11.4709 52.6987 14.7997C52.6987 18.1437 51.1778 20.1917 48.4516 20.1917C45.937 20.1908 44.1299 18.3988 44.1299 14.6939ZM49.673 14.7988C49.673 13.0068 49.0996 11.7117 48.3619 11.7117C47.8045 11.6957 47.1121 12.8557 47.1121 14.6939C47.1121 16.637 47.8499 17.8566 48.4516 17.8566C49.145 17.8557 49.673 16.6362 49.673 14.7988Z" fill="white"/>
<path d="M53.7891 12.2844C53.7891 11.0942 54.4362 10.2817 55.3704 10.2817C56.5002 10.2817 57.0264 11.0951 57.0264 12.3902C57.0264 13.6248 56.4539 14.3786 55.4459 14.3786C54.4664 14.3777 53.7891 13.6995 53.7891 12.2844ZM55.8673 12.3893C55.8673 11.6666 55.6868 11.1849 55.3544 11.1849C55.1739 11.1849 54.9179 11.6062 54.9179 12.2844C54.9179 13.0524 55.2042 13.5039 55.4459 13.5039C55.7011 13.5039 55.8673 13.0515 55.8673 12.3893ZM58.1562 10.3253L55.0388 19.9644H56.7713L59.8895 10.3253H58.1562ZM57.8557 17.887C57.8557 16.6968 58.5037 15.8844 59.4361 15.8844C60.5659 15.8844 61.093 16.6977 61.093 17.9928C61.093 19.2275 60.5206 19.9812 59.5117 19.9812C58.5322 19.9804 57.8557 19.3021 57.8557 17.887ZM59.933 17.9919C59.933 17.2693 59.7526 16.7875 59.421 16.7875C59.2406 16.7875 58.9846 17.2088 58.9846 17.887C58.9846 18.6541 59.2699 19.1066 59.5108 19.1066C59.7677 19.1066 59.933 18.6542 59.933 17.9919Z" fill="white"/>
<path d="M34.0384 26.3506V31.8723H29.7157V29.6484H25.7184V33.0972H30.4659V36.419H25.7184V40.491H29.7157V38.1683H34.0384V43.8154H18.9727V40.4918H20.5469V29.6492H18.9727V26.3515H34.0384V26.3506Z" fill="white"/>
<path d="M34.0384 26.3506V31.8723H29.7157V29.6484H25.7184V33.0972H30.4659V36.419H25.7184V40.491H29.7157V38.1683H34.0384V43.8154H18.9727V40.4918H20.5469V29.6492H18.9727V26.3515H34.0384V26.3506Z" fill="white"/>
<path d="M51.4243 40.6928C49.7248 42.5657 47.1275 44.2146 43.8537 44.2146C38.5568 44.2146 35.0342 40.8164 35.0342 35.2457C35.0342 29.5 39.3568 26.052 42.6297 26.052C45.1284 26.052 46.2519 27.4511 46.4777 27.7507L47.0528 26.3516H50.9745V33.4466H46.5026C46.4279 31.8226 45.6279 30.2982 43.8546 30.2982C42.0555 30.2982 40.8813 32.5222 40.8813 35.2448C40.8813 37.7186 42.155 39.9417 44.5292 39.9417C46.6279 39.9417 48.2768 37.7435 48.5017 37.4946L51.4243 40.6928Z" fill="white"/>
<path d="M51.4243 40.6928C49.7248 42.5657 47.1275 44.2146 43.8537 44.2146C38.5568 44.2146 35.0342 40.8164 35.0342 35.2457C35.0342 29.5 39.3568 26.052 42.6297 26.052C45.1284 26.052 46.2519 27.4511 46.4777 27.7507L47.0528 26.3516H50.9745V33.4466H46.5026C46.4279 31.8226 45.6279 30.2982 43.8546 30.2982C42.0555 30.2982 40.8813 32.5222 40.8813 35.2448C40.8813 37.7186 42.155 39.9417 44.5292 39.9417C46.6279 39.9417 48.2768 37.7435 48.5017 37.4946L51.4243 40.6928Z" fill="white"/>
<path d="M52.1709 34.9957C52.1709 29.5984 55.7691 25.8757 60.9406 25.8757C67.0615 25.8757 69.9095 29.5486 69.9095 35.1699C69.9095 40.8152 66.7611 44.2641 61.1149 44.2641C55.8936 44.2641 52.1709 41.241 52.1709 34.9957ZM63.6633 35.1699C63.6633 32.1468 62.8384 29.7237 60.9149 29.7237C59.3913 29.6988 58.3415 31.8979 58.3415 34.9957C58.3415 38.2677 59.5158 40.3414 61.1149 40.3414C62.6891 40.3414 63.6633 38.2677 63.6633 35.1699Z" fill="white"/>
<path d="M52.1709 34.9957C52.1709 29.5984 55.7691 25.8757 60.9406 25.8757C67.0615 25.8757 69.9095 29.5486 69.9095 35.1699C69.9095 40.8152 66.7611 44.2641 61.1149 44.2641C55.8936 44.2641 52.1709 41.241 52.1709 34.9957ZM63.6633 35.1699C63.6633 32.1468 62.8384 29.7237 60.9149 29.7237C59.3913 29.6988 58.3415 31.8979 58.3415 34.9957C58.3415 38.2677 59.5158 40.3414 61.1149 40.3414C62.6891 40.3414 63.6633 38.2677 63.6633 35.1699Z" fill="white"/>
<path d="M28.1379 48.0232C29.9086 48.0232 30.2446 48.7859 30.2446 49.657C30.2446 50.665 29.329 51.1681 28.2375 51.1681H27.657V52.3512H28.1228V53.3592H25.665V52.3512H26.0917V49.0232H25.665V48.0232H28.1379ZM27.6561 50.3441H28.0001C28.4428 50.3441 28.7486 50.1139 28.7486 49.7094C28.7486 49.2596 28.481 49.0152 28.0384 49.0152H27.6561V50.3441Z" fill="white"/>
<path d="M28.1379 48.0232C29.9086 48.0232 30.2446 48.7859 30.2446 49.657C30.2446 50.665 29.329 51.1681 28.2375 51.1681H27.657V52.3512H28.1228V53.3592H25.665V52.3512H26.0917V49.0232H25.665V48.0232H28.1379ZM27.6561 50.3441H28.0001C28.4428 50.3441 28.7486 50.1139 28.7486 49.7094C28.7486 49.2596 28.481 49.0152 28.0384 49.0152H27.6561V50.3441Z" fill="white"/>
<path d="M33.0278 48.0232C34.7993 48.0232 35.1424 48.7254 35.1424 49.5956C35.1424 50.1912 34.6695 50.6116 34.0357 50.7032C34.5629 50.7787 35.0357 51.2374 35.0357 51.7867C35.0357 52.1147 35.082 52.3058 35.2197 52.3058C35.3335 52.3058 35.3948 52.2143 35.3948 52.0623V51.8107H35.906V52.2312C35.906 52.8641 35.6393 53.4525 34.7913 53.4525C33.7922 53.4525 33.3104 52.9254 33.3104 52.0321C33.3104 51.3369 33.2269 51.169 32.5478 51.169V52.3521H33.0126V53.3601H30.5469V52.3521H30.9735V49.0241H30.5469V48.0241H33.0278V48.0232ZM32.5469 50.313H32.89C33.3335 50.313 33.6224 50.0996 33.6224 49.6952C33.6224 49.2445 33.3709 49.0152 32.9282 49.0152H32.5469V50.313Z" fill="white"/>
<path d="M33.0278 48.0232C34.7993 48.0232 35.1424 48.7254 35.1424 49.5956C35.1424 50.1912 34.6695 50.6116 34.0357 50.7032C34.5629 50.7787 35.0357 51.2374 35.0357 51.7867C35.0357 52.1147 35.082 52.3058 35.2197 52.3058C35.3335 52.3058 35.3948 52.2143 35.3948 52.0623V51.8107H35.906V52.2312C35.906 52.8641 35.6393 53.4525 34.7913 53.4525C33.7922 53.4525 33.3104 52.9254 33.3104 52.0321C33.3104 51.3369 33.2269 51.169 32.5478 51.169V52.3521H33.0126V53.3601H30.5469V52.3521H30.9735V49.0241H30.5469V48.0241H33.0278V48.0232ZM32.5469 50.313H32.89C33.3335 50.313 33.6224 50.0996 33.6224 49.6952C33.6224 49.2445 33.3709 49.0152 32.9282 49.0152H32.5469V50.313Z" fill="white"/>
<path d="M36.0938 50.6641C36.0938 49.0152 37.1933 47.8774 38.7728 47.8774C40.6431 47.8774 41.5133 48.9992 41.5133 50.7165C41.5133 52.4419 40.5515 53.4952 38.8262 53.4952C37.2315 53.4961 36.0938 52.5725 36.0938 50.6641ZM39.6057 50.7174C39.6057 49.7939 39.3533 49.0534 38.7657 49.0534C38.3 49.0454 37.98 49.7174 37.98 50.6641C37.98 51.6632 38.3382 52.2979 38.8271 52.2979C39.308 52.2979 39.6057 51.6632 39.6057 50.7174Z" fill="white"/>
<path d="M36.0938 50.6641C36.0938 49.0152 37.1933 47.8774 38.7728 47.8774C40.6431 47.8774 41.5133 48.9992 41.5133 50.7165C41.5133 52.4419 40.5515 53.4952 38.8262 53.4952C37.2315 53.4961 36.0938 52.5725 36.0938 50.6641ZM39.6057 50.7174C39.6057 49.7939 39.3533 49.0534 38.7657 49.0534C38.3 49.0454 37.98 49.7174 37.98 50.6641C37.98 51.6632 38.3382 52.2979 38.8271 52.2979C39.308 52.2979 39.6057 51.6632 39.6057 50.7174Z" fill="white"/>
<path d="M41.8213 52.3433H42.2942V49.0305H41.8213V48.0225H44.1493C45.9964 48.0225 47.0506 49.1593 47.0506 50.6171C47.0506 52.3584 45.9964 53.3584 44.1191 53.3584H41.8213V52.3433ZM44.1493 52.3433C44.959 52.3273 45.2942 51.5727 45.2942 50.618C45.2942 49.802 44.959 49.0314 44.1493 49.0314H43.8595V52.3442L44.1493 52.3433Z" fill="white"/>
<path d="M41.8213 52.3433H42.2942V49.0305H41.8213V48.0225H44.1493C45.9964 48.0225 47.0506 49.1593 47.0506 50.6171C47.0506 52.3584 45.9964 53.3584 44.1191 53.3584H41.8213V52.3433ZM44.1493 52.3433C44.959 52.3273 45.2942 51.5727 45.2942 50.618C45.2942 49.802 44.959 49.0314 44.1493 49.0314H43.8595V52.3442L44.1493 52.3433Z" fill="white"/>
<path d="M49.6668 48.0234V49.0073H49.2544V50.6562C49.2544 51.8856 49.529 52.1442 50.0179 52.1442C50.4837 52.1442 50.7886 51.962 50.7886 50.6482V49.0305H50.3761V48.0225H52.6357V49.0065H52.2232V50.8616C52.2232 52.6704 51.4677 53.4882 50.033 53.4882C48.4908 53.4411 47.6659 52.6322 47.6659 50.9007V49.0145H47.2393V48.0225H49.6668V48.0234Z" fill="white"/>
<path d="M49.6668 48.0234V49.0073H49.2544V50.6562C49.2544 51.8856 49.529 52.1442 50.0179 52.1442C50.4837 52.1442 50.7886 51.962 50.7886 50.6482V49.0305H50.3761V48.0225H52.6357V49.0065H52.2232V50.8616C52.2232 52.6704 51.4677 53.4882 50.033 53.4882C48.4908 53.4411 47.6659 52.6322 47.6659 50.9007V49.0145H47.2393V48.0225H49.6668V48.0234Z" fill="white"/>
<path d="M57.8693 52.4047C57.3502 52.9771 56.5555 53.4811 55.5555 53.4811C53.9378 53.4811 52.8613 52.4429 52.8613 50.7407C52.8613 48.9842 54.1813 47.9309 55.1822 47.9309C55.9449 47.9309 56.2889 48.3585 56.3573 48.45L56.5333 48.0234H57.7315V50.1913H56.3644C56.3422 49.6953 56.0978 49.2305 55.5555 49.2305C55.0062 49.2305 54.648 49.9096 54.648 50.7416C54.648 51.4971 55.0373 52.1762 55.7626 52.1762C56.4035 52.1762 56.9075 51.5042 56.976 51.4278L57.8693 52.4047Z" fill="white"/>
<path d="M57.8693 52.4047C57.3502 52.9771 56.5555 53.4811 55.5555 53.4811C53.9378 53.4811 52.8613 52.4429 52.8613 50.7407C52.8613 48.9842 54.1813 47.9309 55.1822 47.9309C55.9449 47.9309 56.2889 48.3585 56.3573 48.45L56.5333 48.0234H57.7315V50.1913H56.3644C56.3422 49.6953 56.0978 49.2305 55.5555 49.2305C55.0062 49.2305 54.648 49.9096 54.648 50.7416C54.648 51.4971 55.0373 52.1762 55.7626 52.1762C56.4035 52.1762 56.9075 51.5042 56.976 51.4278L57.8693 52.4047Z" fill="white"/>
<path d="M63.2195 50.0072H62.0977V49.0303H61.4559V52.3432H62.0897V53.3592H59.2506V52.3432H59.8764V49.0303H59.2204V50.0072H58.0986V48.0232H63.2204L63.2195 50.0072Z" fill="white"/>
<path d="M63.2195 50.0072H62.0977V49.0303H61.4559V52.3432H62.0897V53.3592H59.2506V52.3432H59.8764V49.0303H59.2204V50.0072H58.0986V48.0232H63.2204L63.2195 50.0072Z" fill="white"/>
<path d="M36.1857 66.8676L32.6258 66.9761L30.5191 64.105L29.5218 67.5236L26.1387 68.6401L29.0835 70.6454L29.0995 74.208L31.9155 72.0285L35.3084 73.112L34.1066 69.7601L36.1857 66.8676Z" fill="white"/>
<path d="M36.1857 66.8676L32.6258 66.9761L30.5191 64.105L29.5218 67.5236L26.1387 68.6401L29.0835 70.6454L29.0995 74.208L31.9155 72.0285L35.3084 73.112L34.1066 69.7601L36.1857 66.8676Z" fill="white"/>
<path d="M44.4401 65.7271L46.0161 68.9199L49.5405 69.4328L46.9903 71.919L47.5921 75.4292L44.4401 73.7723L41.2872 75.4292L41.889 71.919L39.3379 69.4328L42.8632 68.9199L44.4401 65.7271Z" fill="white"/>
<path d="M44.4401 65.7271L46.0161 68.9199L49.5405 69.4328L46.9903 71.919L47.5921 75.4292L44.4401 73.7723L41.2872 75.4292L41.889 71.919L39.3379 69.4328L42.8632 68.9199L44.4401 65.7271Z" fill="white"/>
<path d="M58.3687 64.105L59.366 67.5236L62.7491 68.6392L59.8042 70.6454L59.7874 74.2071L56.9714 72.0276L53.5785 73.112L54.7812 69.7601L52.7012 66.8676L56.2612 66.9761L58.3687 64.105Z" fill="white"/>
<path d="M58.3687 64.105L59.366 67.5236L62.7491 68.6392L59.8042 70.6454L59.7874 74.2071L56.9714 72.0276L53.5785 73.112L54.7812 69.7601L52.7012 66.8676L56.2612 66.9761L58.3687 64.105Z" fill="white"/>
</svg>
