<svg width="18" height="17" viewBox="0 0 18 17" fill="none" xmlns="http://www.w3.org/2000/svg">
<path d="M6.00552 11.9937C4.83069 11.9937 3.875 12.9865 3.875 14.207C3.875 15.4275 4.83069 16.4203 6.00552 16.4203C7.18036 16.4203 8.13605 15.4275 8.13605 14.207C8.13605 12.9865 7.18036 11.9937 6.00552 11.9937ZM6.00552 15.1555C5.50213 15.1555 5.09244 14.7299 5.09244 14.207C5.09244 13.684 5.50213 13.2584 6.00552 13.2584C6.50912 13.2584 6.9186 13.684 6.9186 14.207C6.9186 14.7299 6.50895 15.1555 6.00552 15.1555Z" fill="white"/>
<path d="M12.818 11.9937C11.6432 11.9937 10.6875 12.9865 10.6875 14.207C10.6875 15.4275 11.6432 16.4203 12.818 16.4203C13.9929 16.4203 14.9485 15.4275 14.9485 14.207C14.9485 12.9865 13.9929 11.9937 12.818 11.9937ZM12.818 15.1555C12.3146 15.1555 11.9049 14.7299 11.9049 14.207C11.9049 13.684 12.3146 13.2584 12.818 13.2584C13.3216 13.2584 13.7311 13.684 13.7311 14.207C13.7311 14.7299 13.3214 15.1555 12.818 15.1555Z" fill="white"/>
<path d="M16.7195 3.33053C16.9068 3.33053 17.0837 3.42012 17.199 3.57338C17.3142 3.72661 17.3554 3.92645 17.3101 4.11533L15.7883 10.4811C15.721 10.7629 15.4773 10.9611 15.1977 10.9611H4.38278C4.09589 10.9611 3.84815 10.753 3.78767 10.4617L1.88238 1.26476H0.608721C0.272513 1.26476 0 0.981657 0 0.632381C0 0.283105 0.272513 0 0.608721 0H2.374C2.66089 0 2.90863 0.20804 2.96911 0.499373L3.55556 3.33032L3.81759 4.59508L4.8744 9.6965H14.7219L15.9413 4.5953H14.8889C14.5527 4.5953 14.2802 4.31219 14.2802 3.96291C14.2802 3.61364 14.5527 3.33053 14.8889 3.33053H16.7195Z" fill="white"/>
<path d="M9.41225 0.670898C8.96018 0.670898 8.59375 1.14025 8.59375 1.7193V6.1226C8.59375 6.70165 8.96018 7.171 9.41225 7.171C9.86432 7.171 10.2307 6.70165 10.2307 6.1226V1.7193C10.2307 1.14019 9.86436 0.670898 9.41225 0.670898Z" fill="white"/>
<path d="M11.4094 3.02539H7.20449C6.6471 3.02539 6.19531 3.40606 6.19531 3.8757C6.19531 4.34534 6.6471 4.72601 7.20449 4.72601H11.4094C11.9668 4.72601 12.4185 4.34534 12.4185 3.8757C12.4185 3.40606 11.9668 3.02539 11.4094 3.02539Z" fill="white"/>
</svg>
