<svg width="27" height="27" viewBox="0 0 27 27" fill="none" xmlns="http://www.w3.org/2000/svg">
<path d="M13.501 2.25C19.7144 2.25 24.751 7.28663 24.751 13.5C24.751 19.7134 19.7144 24.75 13.501 24.75C11.5129 24.7532 9.55973 24.2271 7.84224 23.2256L2.25549 24.75L3.77649 19.161C2.77422 17.443 2.24767 15.489 2.25099 13.5C2.25099 7.28663 7.28762 2.25 13.501 2.25ZM9.66699 8.2125L9.44199 8.2215C9.29633 8.23037 9.15397 8.26864 9.02349 8.334C8.90145 8.40311 8.79005 8.4895 8.69274 8.5905C8.55774 8.71763 8.48124 8.82788 8.39912 8.93475C7.983 9.47577 7.75896 10.14 7.76237 10.8225C7.76462 11.3737 7.90862 11.9104 8.13362 12.4121C8.59374 13.4269 9.35087 14.5012 10.3499 15.4969C10.5906 15.7365 10.8269 15.9773 11.0811 16.2011C12.3224 17.294 13.8017 18.0822 15.4011 18.5029L16.0401 18.6007C16.2482 18.612 16.4564 18.5963 16.6656 18.5861C16.9933 18.5692 17.3132 18.4805 17.6027 18.3263C17.7501 18.2504 17.8938 18.1678 18.0336 18.0787C18.0336 18.0787 18.082 18.0472 18.1742 17.9775C18.3261 17.865 18.4195 17.7851 18.5455 17.6535C18.6389 17.5568 18.7199 17.4431 18.7817 17.3138C18.8695 17.1304 18.9572 16.7805 18.9932 16.4891C19.0202 16.2664 19.0124 16.1449 19.009 16.0695C19.0045 15.9491 18.9044 15.8243 18.7952 15.7714L18.1405 15.4778C18.1405 15.4778 17.1617 15.0514 16.5632 14.7791C16.5006 14.7518 16.4335 14.7361 16.3652 14.733C16.2883 14.7251 16.2105 14.7338 16.1371 14.7584C16.0638 14.783 15.9966 14.8231 15.94 14.8759C15.9344 14.8736 15.859 14.9377 15.0456 15.9233C14.9989 15.986 14.9346 16.0334 14.8609 16.0594C14.7872 16.0855 14.7073 16.089 14.6316 16.0695C14.5583 16.0498 14.4865 16.025 14.4167 15.9953C14.2772 15.9368 14.2289 15.9142 14.1332 15.8737C13.4876 15.592 12.8898 15.2113 12.3614 14.7454C12.2196 14.6216 12.088 14.4866 11.953 14.3561C11.5104 13.9323 11.1247 13.4528 10.8055 12.9296L10.7391 12.8228C10.6914 12.7509 10.6529 12.6735 10.6244 12.5921C10.5816 12.4268 10.693 12.294 10.693 12.294C10.693 12.294 10.9664 11.9948 11.0935 11.8327C11.2172 11.6753 11.3219 11.5223 11.3894 11.4131C11.5221 11.1994 11.5637 10.98 11.494 10.8101C11.179 10.0406 10.8527 9.2745 10.5175 8.514C10.4511 8.36325 10.2542 8.25525 10.0754 8.23387C10.0146 8.22712 9.95387 8.22038 9.89312 8.21588C9.74204 8.20837 9.59064 8.20987 9.43974 8.22038L9.66699 8.2125Z" fill="#34D976"/>
</svg>
