<svg width="526" height="500" viewBox="0 0 526 500" fill="none" xmlns="http://www.w3.org/2000/svg">
<g opacity="0.1">
<path d="M28.9027 497.555H98.5536V457.281H48.803C45.0124 457.281 41.6957 453.964 41.6957 450.174V356.358H89.0773V316.084H41.6957V215.629H98.5536V175.354H0V468.643C0 485.226 12.3192 497.545 28.9027 497.545V497.555Z" fill="#D38AD5"/>
<path d="M157.276 497.555H202.762L245.406 175.361H203.71L188.074 303.291L181.441 407.056H178.598L171.964 303.291L156.329 175.361H114.633L157.276 497.555Z" fill="#DE90C2"/>
<path d="M322.539 324.613C356.18 324.613 383.187 302.343 383.187 268.703V228.902C383.187 195.261 356.18 172.992 322.539 172.992C288.898 172.992 261.891 195.261 261.891 228.902V268.703C261.891 302.343 288.898 324.613 322.539 324.613ZM261.891 444.014C261.891 477.655 288.898 499.924 322.539 499.924C356.18 499.924 383.187 477.655 383.187 444.014V404.214C383.187 370.573 356.18 348.304 322.539 348.304C288.898 348.304 261.891 370.573 261.891 404.214V444.014ZM299.796 444.962V403.266C299.796 390.473 309.272 384.313 322.539 384.313C335.806 384.313 345.282 390.473 345.282 403.266V444.962C345.282 457.755 335.806 463.914 322.539 463.914C309.272 463.914 299.796 457.755 299.796 444.962ZM299.796 269.65V227.954C299.796 215.161 309.272 209.002 322.539 209.002C335.806 209.002 345.282 215.161 345.282 227.954V269.65C345.282 282.443 335.806 288.603 322.539 288.603C309.272 288.603 299.796 282.443 299.796 269.65Z" fill="#E997B0"/>
<path d="M497.27 373.409L498.692 380.516H493.953L446.098 175.361H404.402V497.555H446.098V397.58L432.831 299.5L431.41 292.393H435.674L484.003 497.549H525.699V175.371H484.003V275.346L497.27 373.409Z" fill="#F49D9D"/>
<path d="M407.279 0H401.414V1.64655C401.414 2.55213 401.437 3.29715 401.465 3.30258C401.493 3.30752 402.766 3.33068 404.292 3.35405L407.068 3.39587L404.205 5.82992L401.343 8.26462L401.361 9.98055L401.38 11.697L407.221 11.7149L413.062 11.732L413.109 10.823C413.134 10.3229 413.145 9.57372 413.133 9.15861L413.111 8.40394L410.202 8.36955L407.294 8.33536L410.219 5.84568L413.145 3.35535V0.000451865L407.279 0ZM379.23 5.85477L377.882 5.80953L377.865 7.67287C377.857 8.69783 377.849 9.83726 377.848 10.2051L377.847 10.874L382.135 10.9083L386.422 10.9425L382.117 14.6066L377.812 18.2702V23.4402L383.587 23.4861C386.762 23.5108 390.709 23.5313 392.357 23.5313H395.354L395.399 22.8C395.424 22.398 395.444 21.2715 395.444 20.296V18.5242L394.02 18.5143C393.237 18.5093 391.265 18.4855 389.637 18.4628L386.679 18.421L391.061 14.6924L395.444 10.963V5.90041H388.011C383.923 5.90041 379.972 5.87945 379.23 5.85477ZM357.14 11.7541L348.382 11.7088V18.4548L351.864 18.4647C353.778 18.4696 356.355 18.4928 357.588 18.5161L359.832 18.558L354.073 23.4529L348.313 28.3478V35.2446L349.874 35.2864C350.732 35.3098 356.035 35.3373 361.657 35.3475L371.879 35.366L371.897 31.988L371.915 28.6093L366.039 28.5921L360.163 28.5744L366.029 23.5842L371.895 18.594L371.938 18.336C371.962 18.194 371.981 16.6655 371.982 14.9393V11.8016H368.94C367.267 11.8016 361.957 11.7811 357.14 11.7557L357.14 11.7541ZM284.202 43.9982L269.11 43.9811L268.753 44.1189C268.557 44.1951 268.242 44.3954 268.053 44.5656C267.854 44.7446 267.629 45.0383 267.518 45.2654L267.326 45.6564L267.289 60.4409L267.252 75.2254L267.099 75.8909C267.016 76.2566 266.852 76.828 266.736 77.1601C266.619 77.4921 266.341 78.1191 266.118 78.5527C265.894 78.9863 265.55 79.5578 265.354 79.8219C265.157 80.0861 264.82 80.4812 264.603 80.6994C264.301 81.004 264.044 81.1762 263.504 81.4341C263.116 81.6194 262.514 81.8636 262.166 81.9768C261.818 82.09 261.272 82.2176 260.952 82.2601C260.527 82.3171 260.24 82.3177 259.888 82.2635C259.622 82.2223 259.238 82.1263 259.034 82.0494C258.829 81.9732 258.415 81.7627 258.114 81.5809C257.812 81.3998 257.045 80.8516 256.409 80.3624C255.772 79.8733 254.987 79.2861 254.664 79.0576C254.342 78.8292 253.815 78.4841 253.493 78.2906C253.172 78.0971 252.618 77.8014 252.262 77.634C251.906 77.4666 251.293 77.2177 250.899 77.0818C250.505 76.9453 249.81 76.7587 249.355 76.6674C248.901 76.5755 248.112 76.465 247.602 76.4218C247.054 76.3751 246.284 76.3614 245.715 76.3889C245.187 76.4142 244.401 76.4809 243.969 76.5365C243.536 76.5928 242.888 76.7018 242.528 76.7793C242.168 76.8568 241.503 77.0421 241.05 77.1903C240.597 77.3385 239.876 77.6287 239.447 77.8352C239.017 78.0417 238.434 78.3511 238.151 78.5233C237.868 78.6955 237.4 79.0097 237.114 79.2216C236.826 79.4343 236.255 79.9338 235.845 80.3324C235.435 80.7317 234.914 81.2839 234.688 81.5597C234.461 81.8362 234.046 82.4063 233.766 82.8254C233.485 83.2453 233.013 84.0844 232.715 84.6901C232.417 85.2959 232.03 86.1925 231.855 86.6824C231.679 87.1729 231.434 87.9447 231.31 88.3975C231.186 88.851 231.005 89.607 230.908 90.0791C230.812 90.5504 230.67 91.3689 230.595 91.897C230.519 92.4253 230.423 93.2122 230.38 93.6465C230.338 94.0801 230.286 95.3309 230.265 96.4249C230.241 97.6667 230.257 98.8912 230.309 99.6837C230.355 100.381 230.436 101.323 230.492 101.776C230.547 102.229 230.638 102.877 230.694 103.217C230.751 103.556 230.892 104.266 231.009 104.795C231.125 105.323 231.343 106.156 231.493 106.647C231.643 107.137 231.907 107.893 232.077 108.328C232.249 108.761 232.538 109.414 232.72 109.779C232.903 110.143 233.207 110.703 233.397 111.024C233.587 111.345 233.979 111.927 234.269 112.317C234.56 112.707 235.108 113.347 235.488 113.738C235.869 114.129 236.395 114.627 236.66 114.844C236.924 115.06 237.453 115.443 237.836 115.694C238.219 115.944 238.913 116.332 239.38 116.555C239.846 116.779 240.552 117.072 240.949 117.206C241.347 117.34 242.011 117.526 242.424 117.619C242.839 117.713 243.532 117.835 243.966 117.89C244.4 117.947 245.187 118.013 245.715 118.039C246.288 118.066 247.048 118.052 247.6 118.005C248.108 117.961 248.847 117.863 249.242 117.786C249.638 117.71 250.32 117.53 250.758 117.386C251.196 117.242 251.877 116.972 252.271 116.786C252.665 116.599 253.281 116.266 253.639 116.044C253.998 115.823 254.507 115.487 254.771 115.297C255.035 115.107 255.772 114.552 256.409 114.064C257.045 113.575 257.813 113.028 258.114 112.847C258.416 112.665 258.829 112.454 259.034 112.378C259.238 112.301 259.622 112.205 259.888 112.164C260.243 112.109 260.529 112.11 260.967 112.167C261.295 112.211 261.841 112.338 262.181 112.45C262.52 112.563 263.169 112.836 263.621 113.059C264.074 113.282 264.634 113.618 264.865 113.808C265.097 113.997 265.444 114.362 265.637 114.619C265.83 114.875 266.112 115.321 266.262 115.609C266.413 115.897 266.631 116.422 266.746 116.776C266.862 117.129 267.022 117.757 267.103 118.172L267.25 118.927L267.287 133.848L267.326 148.77L267.518 149.161C267.629 149.388 267.854 149.682 268.053 149.861C268.242 150.03 268.565 150.233 268.773 150.31L269.15 150.452L320.651 150.434L372.152 150.417L372.496 150.235C372.686 150.135 372.982 149.901 373.155 149.717C373.344 149.515 373.529 149.223 373.617 148.987L373.764 148.593L373.765 134.343C373.766 125.067 373.79 119.805 373.837 119.269C373.876 118.817 373.967 118.161 374.039 117.814C374.112 117.466 374.253 116.942 374.354 116.648C374.454 116.354 374.629 115.928 374.743 115.702C374.856 115.476 375.043 115.151 375.158 114.982C375.274 114.811 375.493 114.523 375.645 114.341C375.798 114.158 376.109 113.869 376.336 113.699C376.563 113.528 377.011 113.256 377.332 113.096C377.653 112.935 378.213 112.692 378.578 112.556C378.943 112.419 379.529 112.258 379.88 112.198C380.307 112.124 380.665 112.103 380.958 112.135C381.2 112.161 381.556 112.229 381.749 112.286C381.942 112.343 382.285 112.483 382.511 112.596C382.738 112.71 383.155 112.964 383.438 113.162C383.721 113.359 384.4 113.867 384.947 114.291C385.494 114.714 386.355 115.337 386.861 115.674C387.366 116.012 388.153 116.47 388.61 116.693C389.067 116.916 389.811 117.221 390.264 117.372C390.717 117.523 391.422 117.711 391.832 117.79C392.241 117.869 393.034 117.969 393.594 118.012C394.361 118.071 394.898 118.071 395.776 118.011C396.416 117.967 397.306 117.869 397.753 117.793C398.199 117.717 398.859 117.576 399.217 117.478C399.576 117.382 400.162 117.194 400.52 117.061C400.879 116.927 401.501 116.654 401.904 116.452C402.306 116.251 402.862 115.942 403.139 115.765C403.415 115.588 403.893 115.249 404.2 115.01C404.506 114.771 405.036 114.296 405.377 113.955C405.718 113.615 406.19 113.096 406.427 112.804C406.663 112.511 407.068 111.947 407.327 111.552C407.586 111.155 407.98 110.474 408.203 110.038C408.426 109.602 408.745 108.908 408.913 108.495C409.081 108.082 409.328 107.404 409.461 106.989C409.594 106.574 409.781 105.926 409.875 105.549C409.971 105.171 410.111 104.552 410.188 104.172C410.265 103.793 410.388 103.067 410.461 102.56C410.534 102.053 410.636 101.221 410.685 100.712C410.743 100.127 410.777 98.8379 410.777 97.2133C410.777 95.5887 410.743 94.2996 410.685 93.7144C410.636 93.2047 410.535 92.3732 410.461 91.8662C410.388 91.3593 410.265 90.6334 410.188 90.254C410.111 89.8747 409.971 89.2551 409.876 88.8779C409.78 88.5005 409.579 87.809 409.427 87.3412C409.275 86.8733 409.014 86.1646 408.847 85.7667C408.68 85.3681 408.357 84.6862 408.128 84.2505C407.9 83.8149 407.517 83.1632 407.277 82.8023C407.038 82.4415 406.643 81.9008 406.398 81.6017C406.155 81.3019 405.758 80.8546 405.515 80.607C405.273 80.3593 404.832 79.9504 404.536 79.6986C404.241 79.4462 403.695 79.0373 403.323 78.7896C402.951 78.5419 402.237 78.1413 401.738 77.8991C401.238 77.657 400.459 77.3373 400.006 77.1891C399.553 77.0415 398.888 76.8563 398.528 76.7788C398.168 76.7013 397.52 76.5922 397.087 76.536C396.655 76.4803 395.869 76.4139 395.341 76.3884C394.768 76.3609 394.008 76.3752 393.456 76.4219C392.948 76.4659 392.209 76.5639 391.814 76.6408C391.418 76.717 390.725 76.9008 390.273 77.049C389.821 77.1979 389.078 77.5004 388.622 77.722C388.167 77.9436 387.409 78.3799 386.938 78.6914C386.466 79.0029 385.542 79.6738 384.882 80.1822C384.222 80.6906 383.511 81.2222 383.302 81.3642C383.094 81.5056 382.736 81.7155 382.508 81.8308C382.28 81.9461 381.924 82.0866 381.719 82.1443C381.513 82.2012 381.188 82.2678 380.997 82.2919C380.805 82.3159 380.388 82.3001 380.071 82.2576C379.753 82.2152 379.215 82.0875 378.875 81.9743C378.536 81.8618 377.971 81.6333 377.619 81.4666C377.267 81.3006 376.858 81.068 376.709 80.95C376.56 80.8321 376.258 80.5144 376.037 80.2448C375.817 79.9745 375.525 79.5786 375.388 79.3639C375.251 79.1498 375.003 78.7026 374.836 78.3691C374.67 78.0364 374.438 77.4924 374.322 77.1603C374.204 76.8283 374.04 76.2568 373.957 75.8911L373.804 75.2256L373.767 60.4412L373.73 45.6566L373.538 45.2656C373.427 45.0385 373.202 44.7449 373.003 44.5658C372.814 44.3964 372.49 44.194 372.283 44.1165L371.907 43.9758H357.334C344.725 43.9758 342.654 43.989 341.953 44.0795C341.507 44.1371 340.758 44.2791 340.286 44.3957C339.814 44.5124 339.115 44.725 338.733 44.8684C338.351 45.0119 337.693 45.3013 337.27 45.5119C336.848 45.7225 336.235 46.0683 335.907 46.281C335.58 46.493 335.027 46.8971 334.679 47.1784C334.332 47.4596 333.83 47.9227 333.564 48.2074C333.297 48.4928 332.914 48.9765 332.711 49.2838C332.509 49.5905 332.172 50.2271 331.965 50.6991C331.758 51.1704 331.494 51.8537 331.378 52.2167C331.262 52.5796 331.098 53.197 331.014 53.5887C330.89 54.1643 330.859 54.5245 330.857 55.467C330.856 56.3692 330.883 56.7575 330.981 57.1822C331.051 57.484 331.202 57.9931 331.315 58.3141C331.427 58.6352 331.637 59.1285 331.779 59.4118C331.922 59.6945 332.231 60.2193 332.466 60.5781C332.701 60.9362 333.295 61.7491 333.785 62.3843C334.274 63.0189 334.875 63.8374 335.12 64.2023C335.364 64.5673 335.683 65.1126 335.829 65.4145C335.975 65.7164 336.187 66.2467 336.3 66.5938C336.413 66.9403 336.554 67.5461 336.612 67.9399C336.67 68.3344 336.718 69.0321 336.718 69.491C336.718 69.95 336.685 70.625 336.645 70.9914C336.605 71.3577 336.509 71.9491 336.433 72.3051C336.356 72.6619 336.2 73.2176 336.087 73.54C335.974 73.8632 335.728 74.4257 335.542 74.7899C335.355 75.1549 335.011 75.7106 334.777 76.0248C334.543 76.3397 334.104 76.8371 333.803 77.1308C333.501 77.4244 332.976 77.8634 332.636 78.1063C332.297 78.3491 331.664 78.7313 331.23 78.9549C330.796 79.1786 330.144 79.4715 329.78 79.6067C329.417 79.7411 328.799 79.9449 328.406 80.0581C328.012 80.1719 327.394 80.3256 327.032 80.4004C326.669 80.4753 326.077 80.5836 325.716 80.6412C325.355 80.6994 324.588 80.7921 324.011 80.8464C323.435 80.9013 322.315 80.9665 321.522 80.9918C320.687 81.0186 319.494 81.005 318.686 80.9609C317.917 80.9191 316.898 80.8388 316.419 80.7825C315.942 80.7269 315.188 80.6184 314.744 80.541C314.301 80.4642 313.591 80.3112 313.168 80.2014C312.744 80.0917 312.074 79.8913 311.677 79.7554C311.282 79.6196 310.525 79.2931 309.997 79.0289C309.468 78.7655 308.749 78.3443 308.398 78.0932C308.048 77.8421 307.515 77.3948 307.213 77.0984C306.912 76.8021 306.481 76.3081 306.256 76.0007C306.031 75.6931 305.695 75.1456 305.511 74.7841C305.325 74.4225 305.081 73.8627 304.968 73.5395C304.855 73.2171 304.699 72.6614 304.622 72.3047C304.546 71.9486 304.447 71.3339 304.401 70.938C304.35 70.4893 304.334 69.7944 304.359 69.0857C304.382 68.4628 304.447 67.7362 304.507 67.4721C304.566 67.208 304.679 66.7909 304.758 66.546C304.838 66.301 305.035 65.8222 305.197 65.4826C305.358 65.143 305.69 64.5667 305.935 64.2017C306.18 63.8367 306.781 63.0183 307.27 62.3838C307.76 61.7485 308.354 60.9356 308.589 60.5775C308.824 60.2187 309.138 59.6836 309.287 59.3872C309.437 59.0908 309.666 58.5303 309.796 58.1406C309.926 57.7516 310.082 57.1136 310.141 56.724C310.22 56.2142 310.239 55.7649 310.211 55.1235C310.19 54.633 310.109 53.9229 310.03 53.5456C309.951 53.1683 309.768 52.5042 309.623 52.0706C309.479 51.637 309.211 50.9571 309.029 50.5613C308.845 50.1647 308.592 49.6557 308.466 49.4293C308.339 49.2029 308.063 48.7783 307.853 48.4853C307.642 48.1931 307.158 47.6518 306.778 47.2827C306.398 46.9129 305.794 46.4162 305.437 46.1788C305.08 45.9408 304.488 45.5957 304.122 45.4118C303.756 45.228 303.106 44.957 302.679 44.8102C302.251 44.6626 301.623 44.4774 301.284 44.3985C300.944 44.3189 300.358 44.2003 299.98 44.1344L299.294 44.0143L284.202 43.9982ZM285.319 48.5925C297.377 48.6138 298.81 48.6283 299.364 48.7285C299.704 48.7902 300.228 48.9062 300.53 48.9864C300.832 49.0661 301.3 49.2238 301.57 49.3356C301.841 49.4481 302.25 49.6546 302.481 49.7939C302.711 49.9332 303.083 50.1959 303.307 50.3777C303.532 50.5595 303.86 50.8991 304.037 51.1324C304.214 51.3656 304.522 51.8959 304.723 52.311C304.923 52.726 305.179 53.3483 305.291 53.6933C305.404 54.0391 305.53 54.5721 305.572 54.8781C305.626 55.2719 305.628 55.584 305.577 55.9442C305.538 56.2241 305.447 56.6076 305.376 56.797C305.304 56.9856 305.128 57.3499 304.984 57.6065C304.841 57.8638 304.201 58.7632 303.563 59.6063C302.925 60.4494 302.187 61.4683 301.924 61.8702C301.66 62.2722 301.262 62.974 301.039 63.4296C300.817 63.8851 300.513 64.6281 300.364 65.0802C300.215 65.5323 300.032 66.2259 299.956 66.6211C299.879 67.0162 299.781 67.7558 299.737 68.2635C299.689 68.813 299.675 69.5773 299.702 70.1481C299.727 70.6763 299.794 71.4626 299.85 71.8948C299.906 72.327 300.016 72.9753 300.093 73.3355C300.171 73.6957 300.356 74.3604 300.504 74.8132C300.652 75.266 300.968 76.0378 301.206 76.5283C301.444 77.0188 301.787 77.6513 301.968 77.9347C302.15 78.2173 302.49 78.6976 302.726 79.0008C302.962 79.304 303.423 79.8213 303.75 80.1506C304.077 80.4799 304.629 80.9766 304.975 81.2551C305.322 81.5337 305.9 81.9515 306.258 82.1827C306.617 82.4146 307.267 82.7871 307.703 83.01C308.139 83.2323 308.834 83.5527 309.247 83.7208C309.66 83.8889 310.337 84.1352 310.752 84.2683C311.167 84.4014 311.815 84.588 312.193 84.6826C312.57 84.7781 313.187 84.9179 313.565 84.9948C313.942 85.0709 314.575 85.1821 314.971 85.2418C315.368 85.3015 316.124 85.3975 316.652 85.4544C317.18 85.512 318.575 85.5765 319.751 85.5979C321.111 85.6226 322.335 85.6061 323.112 85.5546C323.785 85.5094 324.691 85.4278 325.124 85.3728C325.559 85.3172 326.3 85.2075 326.771 85.1286C327.243 85.049 328.05 84.8816 328.565 84.7554C329.079 84.6292 329.851 84.4131 330.28 84.2752C330.708 84.1373 331.367 83.9013 331.745 83.7517C332.122 83.6015 332.817 83.2825 333.288 83.0424C333.76 82.8022 334.47 82.3941 334.866 82.1347C335.263 81.8761 335.823 81.4727 336.111 81.2394C336.4 81.0062 336.897 80.5554 337.215 80.2378C337.532 79.9202 337.964 79.4495 338.174 79.1916C338.384 78.9343 338.732 78.4616 338.947 78.1406C339.162 77.8195 339.545 77.139 339.799 76.6278C340.053 76.116 340.375 75.3532 340.515 74.9313C340.655 74.5094 340.845 73.8323 340.936 73.4255C341.028 73.0193 341.156 72.3003 341.22 71.829C341.294 71.2726 341.337 70.4775 341.34 69.5651C341.342 68.7363 341.308 67.8913 341.253 67.5069C341.203 67.1481 341.075 66.4998 340.969 66.0662C340.863 65.6326 340.68 65.0152 340.562 64.6942C340.444 64.3731 340.181 63.7714 339.977 63.3564C339.773 62.9413 339.363 62.2313 339.064 61.7785C338.765 61.3257 338.009 60.2809 337.384 59.4561C336.758 58.6322 336.124 57.7211 335.974 57.4322C335.825 57.1434 335.655 56.7372 335.597 56.5301C335.54 56.3222 335.473 55.9956 335.449 55.8042C335.425 55.6121 335.441 55.1957 335.483 54.878C335.526 54.5604 335.654 54.0225 335.766 53.683C335.879 53.3434 336.119 52.7568 336.301 52.3795C336.483 52.0022 336.745 51.5631 336.884 51.404C337.023 51.2449 337.434 50.8915 337.798 50.6184C338.16 50.3454 338.831 49.9331 339.286 49.7025C339.742 49.472 340.426 49.1832 340.807 49.0611C341.189 48.9384 341.744 48.788 342.042 48.7263L342.584 48.6144L355.874 48.591L369.164 48.5683L369.188 62.1708L369.21 75.7733L369.352 76.4606C369.431 76.8387 369.576 77.4479 369.676 77.8142C369.775 78.1813 369.961 78.7534 370.088 79.0855C370.215 79.4176 370.504 80.0583 370.73 80.5098C370.958 80.9612 371.325 81.6082 371.549 81.9478C371.773 82.2874 372.192 82.8472 372.481 83.1915C372.77 83.5359 373.185 83.9812 373.403 84.1808C373.62 84.3805 373.984 84.681 374.21 84.8484C374.437 85.0158 374.898 85.2922 375.236 85.4624C375.575 85.6318 376.2 85.9076 376.626 86.0743C377.052 86.241 377.763 86.4674 378.206 86.5772C378.65 86.6876 379.337 86.8139 379.733 86.8592C380.14 86.9051 380.752 86.9224 381.141 86.8983C381.52 86.875 382.076 86.8057 382.376 86.7433C382.677 86.6816 383.186 86.5382 383.506 86.425C383.827 86.3125 384.329 86.0998 384.621 85.9523C384.913 85.8056 385.491 85.4563 385.906 85.1757C386.321 84.8958 387.177 84.2681 387.81 83.7817C388.443 83.2946 389.145 82.7725 389.372 82.6209C389.598 82.4692 390.019 82.2168 390.308 82.0591C390.596 81.9013 391.09 81.6776 391.405 81.5624C391.721 81.447 392.242 81.2913 392.562 81.2172C392.96 81.1246 393.517 81.0697 394.316 81.043C395.036 81.019 395.749 81.0348 396.166 81.0835C396.538 81.1274 397.076 81.2118 397.361 81.2701C397.646 81.3292 398.173 81.4704 398.531 81.5843C398.889 81.6981 399.517 81.9616 399.926 82.1702C400.336 82.3787 400.915 82.7307 401.213 82.9522C401.512 83.1739 401.996 83.5965 402.287 83.8915C402.58 84.1865 403.026 84.7189 403.279 85.0749C403.533 85.4303 403.923 86.0758 404.147 86.5101C404.37 86.9437 404.664 87.5955 404.798 87.9584C404.933 88.3206 405.123 88.8921 405.221 89.2275C405.319 89.563 405.473 90.177 405.563 90.5921C405.653 91.0072 405.762 91.5628 405.803 91.827C405.846 92.0911 405.925 92.6777 405.978 93.1305C406.032 93.5833 406.112 94.6872 406.156 95.5831C406.217 96.8263 406.216 97.6043 406.155 98.8651C406.111 99.7748 406.013 101.002 405.937 101.592C405.861 102.184 405.724 103.038 405.632 103.493C405.54 103.947 405.354 104.704 405.219 105.173C405.084 105.643 404.863 106.305 404.729 106.645C404.595 106.985 404.313 107.592 404.104 107.993C403.895 108.394 403.532 108.992 403.297 109.32C403.063 109.649 402.612 110.181 402.296 110.501C401.979 110.822 401.479 111.265 401.183 111.486C400.888 111.706 400.347 112.04 399.982 112.226C399.618 112.413 399.055 112.659 398.732 112.772C398.41 112.885 397.854 113.041 397.498 113.118C397.142 113.195 396.499 113.295 396.071 113.34C395.623 113.386 394.851 113.406 394.253 113.385C393.682 113.365 392.998 113.301 392.734 113.243C392.47 113.184 392.037 113.07 391.773 112.99C391.509 112.91 390.954 112.676 390.538 112.471C390.123 112.266 389.411 111.828 388.956 111.498C388.501 111.169 387.744 110.602 387.275 110.239C386.806 109.876 386.108 109.374 385.723 109.122C385.339 108.87 384.737 108.529 384.385 108.364C384.034 108.199 383.548 107.998 383.305 107.919C383.062 107.841 382.614 107.723 382.31 107.657C381.905 107.57 381.456 107.539 380.625 107.542C379.724 107.544 379.346 107.577 378.773 107.7C378.377 107.784 377.698 107.972 377.264 108.116C376.83 108.261 376.151 108.529 375.754 108.711C375.358 108.894 374.849 109.148 374.622 109.274C374.396 109.401 373.971 109.677 373.678 109.887C373.386 110.098 372.844 110.581 372.475 110.961C372.105 111.342 371.598 111.963 371.347 112.34C371.096 112.718 370.722 113.382 370.515 113.816C370.309 114.249 370.048 114.882 369.935 115.221C369.823 115.561 369.651 116.195 369.554 116.632C369.456 117.069 369.329 117.825 369.272 118.312C369.183 119.075 369.168 121.068 369.168 132.526V145.852H271.888V132.588C271.888 123.738 271.864 119.076 271.815 118.576C271.775 118.165 271.666 117.444 271.572 116.976C271.479 116.507 271.28 115.747 271.13 115.286C270.98 114.825 270.692 114.112 270.49 113.702C270.288 113.292 269.928 112.665 269.69 112.31C269.452 111.955 268.956 111.352 268.589 110.971C268.222 110.589 267.676 110.101 267.376 109.885C267.075 109.668 266.617 109.374 266.358 109.232C266.098 109.089 265.561 108.828 265.165 108.652C264.769 108.476 264.121 108.224 263.724 108.092C263.328 107.96 262.68 107.787 262.283 107.707C261.888 107.627 261.178 107.544 260.706 107.524C260.104 107.5 259.637 107.521 259.139 107.598C258.75 107.657 258.101 107.816 257.699 107.951C257.296 108.085 256.677 108.35 256.324 108.538C255.97 108.727 255.445 109.04 255.158 109.233C254.869 109.427 254.094 110.001 253.434 110.51C252.774 111.018 251.955 111.618 251.616 111.842C251.276 112.066 250.72 112.381 250.381 112.543C250.041 112.705 249.563 112.901 249.317 112.981C249.072 113.06 248.655 113.174 248.391 113.233C248.111 113.296 247.41 113.357 246.711 113.379C245.806 113.408 245.299 113.389 244.652 113.303C244.181 113.242 243.553 113.128 243.256 113.053C242.961 112.977 242.473 112.826 242.173 112.717C241.873 112.607 241.339 112.366 240.985 112.18C240.631 111.993 240.1 111.66 239.805 111.438C239.51 111.216 239.034 110.797 238.748 110.507C238.461 110.216 238.022 109.691 237.771 109.341C237.521 108.99 237.133 108.347 236.91 107.914C236.686 107.48 236.392 106.828 236.258 106.466C236.123 106.103 235.933 105.532 235.835 105.196C235.737 104.861 235.583 104.247 235.494 103.832C235.403 103.417 235.295 102.861 235.253 102.597C235.21 102.333 235.131 101.746 235.078 101.293C235.024 100.841 234.944 99.7368 234.9 98.8408C234.84 97.6005 234.84 96.8225 234.9 95.582C234.944 94.6861 235.024 93.5823 235.078 93.1294C235.131 92.6766 235.21 92.09 235.253 91.8259C235.295 91.5617 235.392 91.052 235.469 90.6939C235.545 90.3351 235.682 89.7773 235.771 89.4542C235.861 89.1311 236.031 88.5905 236.15 88.2536C236.268 87.9168 236.532 87.2884 236.736 86.8569C236.94 86.426 237.306 85.775 237.549 85.4107C237.792 85.0458 238.208 84.5079 238.474 84.215C238.74 83.922 239.166 83.5083 239.421 83.295C239.676 83.0816 240.086 82.7797 240.332 82.624C240.579 82.4682 240.996 82.2329 241.258 82.1012C241.521 81.9695 241.969 81.7775 242.251 81.6759C242.534 81.5738 243.09 81.4173 243.486 81.3288C243.883 81.2396 244.506 81.1339 244.873 81.0934C245.239 81.0536 245.918 81.0207 246.382 81.0214C246.846 81.0214 247.53 81.0673 247.902 81.1235C248.275 81.1798 248.793 81.2889 249.054 81.3671C249.315 81.4446 249.766 81.6099 250.057 81.7348C250.349 81.8597 250.833 82.108 251.133 82.2857C251.434 82.4641 251.955 82.8112 252.29 83.0575C252.626 83.3038 253.259 83.7847 253.699 84.1257C254.138 84.4673 254.822 84.9613 255.217 85.224C255.614 85.4861 256.18 85.823 256.476 85.9718C256.773 86.1207 257.333 86.3492 257.722 86.4795C258.111 86.6098 258.734 86.7622 259.105 86.8177C259.476 86.874 260.027 86.9199 260.329 86.9199C260.63 86.9199 261.155 86.8864 261.495 86.8451C261.834 86.8039 262.462 86.6804 262.89 86.5706C263.318 86.4609 264.019 86.2338 264.447 86.0664C264.874 85.899 265.481 85.6341 265.795 85.4777C266.109 85.3213 266.551 85.06 266.777 84.8974C267.004 84.7348 267.388 84.4212 267.63 84.2003C267.873 83.9794 268.303 83.5211 268.586 83.1815C268.869 82.8419 269.283 82.2863 269.507 81.9467C269.73 81.6071 270.099 80.9601 270.326 80.5087C270.552 80.0573 270.842 79.4165 270.968 79.0844C271.095 78.7523 271.281 78.1802 271.38 77.8131C271.48 77.4468 271.626 76.8376 271.704 76.4595L271.846 75.7722L271.868 62.1697L271.892 48.5672L285.319 48.5925ZM297.477 99.5639C292.9 99.5507 292.262 99.5623 291.99 99.658C291.82 99.7177 291.555 99.8528 291.401 99.9592C291.247 100.065 291.036 100.262 290.933 100.398C290.83 100.533 290.679 100.79 290.598 100.969C290.488 101.213 290.451 101.429 290.45 101.842C290.45 102.292 290.482 102.462 290.629 102.779C290.728 102.991 290.935 103.292 291.088 103.445C291.241 103.599 291.53 103.81 291.73 103.916L292.092 104.106H302.657L303.019 103.916C303.219 103.81 303.508 103.599 303.661 103.445C303.814 103.292 304.02 102.991 304.118 102.779C304.261 102.467 304.296 102.284 304.298 101.842C304.299 101.39 304.269 101.225 304.119 100.902C304.019 100.688 303.803 100.378 303.64 100.215C303.477 100.052 303.189 99.8418 303 99.7485L302.657 99.5784L297.477 99.5639ZM343.786 99.5639C339.209 99.5507 338.571 99.5623 338.299 99.658C338.129 99.7177 337.864 99.8528 337.71 99.9592C337.556 100.065 337.345 100.262 337.242 100.398C337.139 100.533 336.988 100.79 336.907 100.969C336.797 101.213 336.76 101.429 336.759 101.842C336.758 102.292 336.791 102.462 336.938 102.779C337.037 102.991 337.243 103.292 337.396 103.445C337.55 103.599 337.839 103.81 338.039 103.916L338.401 104.106H348.966L349.328 103.916C349.528 103.81 349.817 103.599 349.97 103.445C350.123 103.292 350.329 102.991 350.426 102.779C350.57 102.467 350.605 102.284 350.607 101.842C350.608 101.39 350.577 101.225 350.428 100.902C350.328 100.688 350.112 100.378 349.949 100.215C349.786 100.052 349.498 99.8418 349.309 99.7485L348.966 99.5784L343.786 99.5639ZM306.794 113.433C306.549 113.414 306.222 113.43 306.068 113.466C305.913 113.502 305.621 113.632 305.419 113.754C305.216 113.875 304.933 114.129 304.79 114.318C304.648 114.506 304.48 114.814 304.418 115C304.323 115.284 304.311 115.526 304.345 116.475C304.368 117.123 304.445 117.95 304.525 118.4C304.602 118.833 304.77 119.574 304.899 120.046C305.029 120.518 305.264 121.228 305.421 121.624C305.578 122.02 305.9 122.718 306.138 123.174C306.375 123.63 306.761 124.291 306.996 124.643C307.231 124.994 307.595 125.501 307.805 125.769C308.016 126.036 308.607 126.675 309.121 127.187C309.633 127.7 310.368 128.353 310.752 128.638C311.137 128.924 311.739 129.335 312.09 129.553C312.441 129.771 313.105 130.13 313.565 130.351C314.025 130.571 314.814 130.889 315.318 131.058C315.823 131.227 316.574 131.441 316.986 131.533C317.399 131.627 318.122 131.751 318.592 131.809C319.063 131.868 319.928 131.915 320.515 131.915C321.102 131.915 321.967 131.867 322.438 131.809C322.909 131.752 323.643 131.626 324.07 131.531C324.498 131.435 325.192 131.24 325.614 131.097C326.036 130.954 326.613 130.739 326.895 130.618C327.179 130.497 327.726 130.231 328.112 130.028C328.497 129.824 329.099 129.465 329.45 129.23C329.799 128.996 330.363 128.581 330.703 128.31C331.043 128.037 331.682 127.442 332.124 126.986C332.567 126.531 333.158 125.85 333.438 125.473C333.719 125.096 334.126 124.501 334.344 124.15C334.562 123.798 334.923 123.13 335.146 122.665C335.369 122.2 335.7 121.366 335.883 120.813C336.064 120.259 336.291 119.42 336.386 118.949C336.482 118.477 336.596 117.748 336.641 117.328C336.685 116.909 336.709 116.23 336.695 115.819L336.667 115.072L336.434 114.638C336.305 114.399 336.073 114.098 335.916 113.971C335.76 113.842 335.48 113.669 335.294 113.584C335.036 113.468 334.827 113.431 334.407 113.431C333.957 113.43 333.789 113.462 333.468 113.611C333.253 113.711 332.943 113.926 332.78 114.089C332.617 114.253 332.41 114.541 332.322 114.729C332.189 115.011 332.144 115.282 332.069 116.246C332.019 116.891 331.916 117.717 331.84 118.082C331.764 118.446 331.608 119.03 331.492 119.378C331.378 119.727 331.084 120.413 330.839 120.904C330.594 121.394 330.186 122.089 329.931 122.447C329.676 122.805 329.113 123.453 328.678 123.887C328.244 124.322 327.596 124.884 327.238 125.138C326.879 125.391 326.226 125.786 325.784 126.015C325.343 126.243 324.604 126.555 324.143 126.706C323.682 126.858 322.963 127.04 322.544 127.11C322.126 127.182 321.46 127.261 321.064 127.286C320.643 127.313 320.002 127.299 319.52 127.252C319.067 127.208 318.419 127.11 318.08 127.036C317.74 126.961 317.149 126.796 316.766 126.667C316.384 126.54 315.781 126.291 315.429 126.114C315.075 125.937 314.524 125.623 314.203 125.415C313.883 125.208 313.451 124.898 313.243 124.726C313.036 124.554 312.686 124.241 312.466 124.031C312.245 123.82 311.872 123.416 311.635 123.134C311.398 122.85 311.049 122.387 310.86 122.104C310.671 121.821 310.36 121.278 310.169 120.897C309.978 120.516 309.715 119.896 309.584 119.519C309.452 119.141 309.281 118.541 309.204 118.184C309.127 117.827 309.032 117.181 308.994 116.749C308.956 116.318 308.915 115.779 308.902 115.553C308.887 115.296 308.812 114.995 308.701 114.753C308.603 114.541 308.393 114.236 308.235 114.078C308.076 113.919 307.787 113.717 307.593 113.628C307.391 113.536 307.05 113.452 306.794 113.433Z" fill="#D38AD5"/>
</g>
</svg>
