<svg width="98" height="94" viewBox="0 0 98 94" fill="none" xmlns="http://www.w3.org/2000/svg">
<path d="M5.38807 92.7544H18.3724V85.2465H9.09789C8.39126 85.2465 7.77295 84.6282 7.77295 83.9215V66.4324H16.6059V58.9244H7.77295V40.1974H18.3724V32.6895H0V87.3645C0 90.456 2.29655 92.7526 5.38807 92.7526V92.7544Z" fill="#D38AD5"/>
<path d="M29.3207 92.7547H37.8003L45.7499 32.6909H37.9769L35.0621 56.5398L33.8255 75.8838H33.2955L32.0589 56.5398L29.144 32.6909H21.3711L29.3207 92.7547Z" fill="#DE90C2"/>
<path d="M60.1303 60.5143C66.4017 60.5143 71.4364 56.3628 71.4364 50.0915V42.6718C71.4364 36.4005 66.4017 32.249 60.1303 32.249C53.859 32.249 48.8242 36.4005 48.8242 42.6718V50.0915C48.8242 56.3628 53.859 60.5143 60.1303 60.5143ZM48.8242 82.7732C48.8242 89.0446 53.859 93.196 60.1303 93.196C66.4017 93.196 71.4364 89.0446 71.4364 82.7732V75.3536C71.4364 69.0822 66.4017 64.9308 60.1303 64.9308C53.859 64.9308 48.8242 69.0822 48.8242 75.3536V82.7732ZM55.8905 82.9499V75.1769C55.8905 72.792 57.6571 71.6438 60.1303 71.6438C62.6036 71.6438 64.3701 72.792 64.3701 75.1769V82.9499C64.3701 85.3348 62.6036 86.483 60.1303 86.483C57.6571 86.483 55.8905 85.3348 55.8905 82.9499ZM55.8905 50.2681V42.4952C55.8905 40.1103 57.6571 38.962 60.1303 38.962C62.6036 38.962 64.3701 40.1103 64.3701 42.4952V50.2681C64.3701 52.653 62.6036 53.8013 60.1303 53.8013C57.6571 53.8013 55.8905 52.653 55.8905 50.2681Z" fill="#E997B0"/>
<path d="M92.6992 69.6112L92.9642 70.9362H92.0809L83.1597 32.6909H75.3867V92.7547H83.1597V74.1172L80.6865 55.8331L80.4215 54.5082H81.2164L90.226 92.7534H97.999V32.6928H90.226V51.3302L92.6992 69.6112Z" fill="#F49D9D"/>
<path d="M75.927 0H74.8335V0.306951C74.8335 0.47577 74.8379 0.614658 74.8431 0.61567C74.8484 0.61659 75.0856 0.620909 75.3702 0.625264L75.8876 0.633061L75.3539 1.08682L74.8203 1.5407L74.8237 1.86058L74.8272 2.18056L75.9161 2.1839L77.005 2.1871L77.0137 2.01764C77.0185 1.9244 77.0205 1.78474 77.0182 1.70736L77.0141 1.56667L76.4719 1.56026L75.9297 1.55388L76.4751 1.08976L77.0205 0.625507V8.42371e-05L75.927 0ZM70.6981 1.09145L70.4467 1.08302L70.4436 1.43038C70.4421 1.62146 70.4405 1.83387 70.4404 1.90245L70.4402 2.02715L71.2395 2.03353L72.0388 2.0399L71.2363 2.72298L70.4337 3.40594V4.36974L71.5102 4.3783C72.1022 4.3829 72.838 4.38673 73.1452 4.38673H73.7039L73.7123 4.2504C73.7169 4.17545 73.7206 3.96545 73.7206 3.7836V3.45329L73.4552 3.45145C73.3093 3.45053 72.9416 3.44608 72.6382 3.44184L72.0866 3.43406L72.9036 2.73896L73.7206 2.04373V1.09996H72.335C71.5729 1.09996 70.8364 1.09605 70.6981 1.09145ZM66.5801 2.1912L64.9473 2.18277V3.44036L65.5963 3.4422C65.9533 3.44312 66.4337 3.44744 66.6636 3.45179L67.0818 3.45959L66.0082 4.3721L64.9345 5.28463V6.57034L65.2254 6.57812C65.3854 6.58248 66.3739 6.5876 67.422 6.5895L69.3276 6.59297L69.331 5.96322L69.3343 5.33336L68.2389 5.33017L67.1435 5.32686L68.2371 4.39658L69.3306 3.4663L69.3387 3.41821C69.3431 3.39174 69.3466 3.10679 69.3468 2.785V2.20007H68.7798C68.4679 2.20007 67.478 2.19624 66.58 2.19151L66.5801 2.1912ZM52.9829 8.20218L50.1693 8.199L50.1028 8.22469C50.0662 8.23889 50.0075 8.27623 49.9723 8.30795C49.9352 8.34133 49.8933 8.39607 49.8726 8.43841L49.8368 8.5113L49.8299 11.2674L49.8231 14.0236L49.7946 14.1476C49.779 14.2158 49.7484 14.3223 49.7268 14.3842C49.705 14.4461 49.6532 14.563 49.6115 14.6439C49.5698 14.7247 49.5058 14.8312 49.4692 14.8805C49.4325 14.9297 49.3696 15.0034 49.3291 15.044C49.2729 15.1008 49.225 15.1329 49.1243 15.181C49.0519 15.2155 48.9397 15.2611 48.8749 15.2822C48.81 15.3033 48.7082 15.3271 48.6486 15.335C48.5693 15.3456 48.5159 15.3457 48.4501 15.3356C48.4007 15.328 48.329 15.31 48.2909 15.2957C48.2528 15.2815 48.1757 15.2423 48.1194 15.2084C48.0633 15.1746 47.9203 15.0724 47.8016 14.9812C47.6829 14.89 47.5366 14.7806 47.4764 14.738C47.4162 14.6954 47.318 14.6311 47.258 14.595C47.1982 14.5589 47.095 14.5038 47.0286 14.4726C46.9622 14.4414 46.8479 14.395 46.7745 14.3697C46.7011 14.3442 46.5715 14.3094 46.4867 14.2924C46.4019 14.2753 46.2549 14.2547 46.1598 14.2466C46.0576 14.2379 45.9142 14.2354 45.8081 14.2405C45.7096 14.2452 45.5631 14.2576 45.4825 14.268C45.4019 14.2785 45.2811 14.2988 45.2139 14.3133C45.1468 14.3277 45.0229 14.3623 44.9384 14.3899C44.854 14.4175 44.7195 14.4716 44.6396 14.5101C44.5595 14.5486 44.4508 14.6063 44.398 14.6384C44.3451 14.6705 44.258 14.729 44.2046 14.7686C44.151 14.8082 44.0446 14.9013 43.9681 14.9756C43.8916 15.0501 43.7946 15.153 43.7524 15.2044C43.71 15.256 43.6327 15.3622 43.5805 15.4404C43.5282 15.5187 43.4401 15.6751 43.3845 15.788C43.329 15.9009 43.2569 16.0681 43.2242 16.1594C43.1914 16.2508 43.1458 16.3947 43.1226 16.4791C43.0995 16.5637 43.0658 16.7046 43.0478 16.7926C43.0298 16.8805 43.0034 17.0331 42.9894 17.1315C42.9753 17.23 42.9573 17.3767 42.9493 17.4577C42.9414 17.5385 42.9318 17.7717 42.9278 17.9756C42.9233 18.2071 42.9263 18.4354 42.936 18.5831C42.9446 18.7132 42.9598 18.8888 42.9702 18.9732C42.9804 19.0576 42.9974 19.1784 43.0079 19.2418C43.0185 19.3051 43.0447 19.4374 43.0665 19.5359C43.0881 19.6344 43.1288 19.7898 43.1568 19.8812C43.1848 19.9727 43.2339 20.1136 43.2657 20.1945C43.2977 20.2754 43.3517 20.3971 43.3856 20.465C43.4196 20.5329 43.4764 20.6374 43.5117 20.6971C43.5471 20.757 43.6202 20.8656 43.6743 20.9382C43.7284 21.011 43.8308 21.1302 43.9016 21.2032C43.9725 21.2761 44.0707 21.3688 44.1199 21.4093C44.1692 21.4497 44.2679 21.5209 44.3393 21.5677C44.4106 21.6144 44.5401 21.6868 44.627 21.7283C44.7139 21.77 44.8456 21.8247 44.9196 21.8496C44.9938 21.8745 45.1175 21.9093 45.1946 21.9267C45.2718 21.9441 45.4011 21.9669 45.482 21.9772C45.5629 21.9877 45.7096 22.0001 45.8081 22.0049C45.9149 22.01 46.0566 22.0073 46.1594 21.9986C46.2541 21.9904 46.3919 21.9721 46.4656 21.9578C46.5393 21.9436 46.6665 21.9101 46.7481 21.8832C46.8299 21.8564 46.9569 21.806 47.0303 21.7713C47.1037 21.7365 47.2185 21.6744 47.2853 21.6331C47.3522 21.5918 47.4471 21.5291 47.4963 21.4938C47.5456 21.4584 47.6829 21.3549 47.8016 21.2639C47.9203 21.1728 48.0633 21.0707 48.1194 21.037C48.1757 21.0031 48.2528 20.9638 48.2909 20.9496C48.3291 20.9353 48.4007 20.9174 48.4502 20.9097C48.5163 20.8995 48.5697 20.8996 48.6513 20.9103C48.7125 20.9184 48.8143 20.9422 48.8776 20.963C48.9409 20.984 49.0618 21.035 49.1462 21.0765C49.2306 21.118 49.3349 21.1808 49.378 21.2161C49.4213 21.2514 49.486 21.3195 49.5219 21.3673C49.558 21.4151 49.6104 21.4982 49.6384 21.552C49.6665 21.6057 49.7072 21.7035 49.7287 21.7694C49.7503 21.8353 49.7801 21.9524 49.7952 22.0298L49.8226 22.1705L49.8296 24.9521L49.8367 27.7338L49.8725 27.8067C49.8933 27.8491 49.9352 27.9038 49.9723 27.9372C50.0075 27.9688 50.0678 28.0065 50.1065 28.021L50.1768 28.0473L59.7777 28.044L69.3786 28.0408L69.4428 28.0069C69.4781 27.9882 69.5333 27.9447 69.5655 27.9103C69.6007 27.8727 69.6352 27.8182 69.6516 27.7742L69.6791 27.7008L69.6792 25.0443C69.6794 23.315 69.684 22.3341 69.6927 22.2343C69.7 22.1499 69.717 22.0278 69.7304 21.963C69.7438 21.8982 69.7702 21.8004 69.789 21.7456C69.8078 21.6908 69.8404 21.6115 69.8615 21.5693C69.8826 21.5271 69.9175 21.4666 69.939 21.435C69.9605 21.4032 70.0014 21.3495 70.0298 21.3155C70.0582 21.2815 70.1161 21.2275 70.1585 21.1958C70.2008 21.164 70.2844 21.1133 70.3442 21.0834C70.404 21.0535 70.5085 21.0082 70.5765 20.9827C70.6446 20.9573 70.7538 20.9272 70.8193 20.916C70.8988 20.9023 70.9655 20.8983 71.0202 20.9042C71.0654 20.9091 71.1316 20.9217 71.1677 20.9325C71.2036 20.9431 71.2676 20.9692 71.3098 20.9903C71.352 21.0114 71.4297 21.0589 71.4824 21.0957C71.5352 21.1325 71.6618 21.2272 71.7638 21.3062C71.8658 21.3851 72.0263 21.5013 72.1206 21.564C72.2147 21.627 72.3615 21.7124 72.4467 21.754C72.5318 21.7955 72.6705 21.8524 72.755 21.8806C72.8394 21.9087 72.9709 21.9438 73.0472 21.9585C73.1236 21.9732 73.2714 21.9918 73.3758 21.9999C73.5188 22.0109 73.6189 22.0109 73.7825 21.9998C73.9019 21.9916 74.0677 21.9733 74.1511 21.9591C74.2343 21.9449 74.3572 21.9186 74.424 21.9004C74.4909 21.8824 74.6002 21.8473 74.667 21.8225C74.7339 21.7977 74.8499 21.7467 74.9249 21.7091C74.9999 21.6716 75.1035 21.6139 75.1551 21.5809C75.2067 21.5481 75.2957 21.4848 75.3529 21.4402C75.41 21.3957 75.5088 21.3072 75.5725 21.2437C75.636 21.1801 75.724 21.0834 75.7681 21.0289C75.8121 20.9745 75.8876 20.8693 75.9359 20.7955C75.9841 20.7216 76.0577 20.5947 76.0991 20.5134C76.1407 20.4321 76.2003 20.3026 76.2316 20.2257C76.263 20.1487 76.3089 20.0224 76.3337 19.945C76.3585 19.8677 76.3933 19.7468 76.4109 19.6765C76.4287 19.6061 76.4549 19.4906 76.4692 19.4199C76.4836 19.3492 76.5065 19.2139 76.5202 19.1194C76.5338 19.0249 76.5528 18.8697 76.562 18.7748C76.5727 18.6657 76.579 18.4254 76.579 18.1226C76.579 17.8197 76.5727 17.5794 76.562 17.4703C76.5528 17.3753 76.5339 17.2203 76.5202 17.1258C76.5065 17.0313 76.4836 16.896 76.4692 16.8252C76.4549 16.7545 76.4287 16.639 76.4111 16.5687C76.3933 16.4983 76.3557 16.3694 76.3273 16.2822C76.299 16.195 76.2504 16.0629 76.2193 15.9887C76.1881 15.9144 76.1279 15.7873 76.0853 15.706C76.0427 15.6248 75.9714 15.5033 75.9266 15.4361C75.882 15.3688 75.8083 15.268 75.7628 15.2123C75.7174 15.1564 75.6433 15.073 75.598 15.0268C75.5529 14.9806 75.4708 14.9044 75.4157 14.8575C75.3607 14.8104 75.2589 14.7342 75.1894 14.688C75.1201 14.6419 74.9871 14.5672 74.894 14.522C74.8007 14.4769 74.6555 14.4173 74.5711 14.3897C74.4867 14.3621 74.3627 14.3276 74.2956 14.3132C74.2284 14.2987 74.1076 14.2784 74.027 14.2679C73.9464 14.2575 73.7999 14.2451 73.7014 14.2404C73.5946 14.2353 73.4529 14.2379 73.3501 14.2466C73.2554 14.2548 73.1176 14.2731 73.0439 14.2874C72.9702 14.3016 72.8409 14.3359 72.7566 14.3635C72.6723 14.3913 72.5338 14.4477 72.4489 14.489C72.364 14.5303 72.2227 14.6116 72.1349 14.6697C72.0471 14.7278 71.8747 14.8529 71.7516 14.9476C71.6286 15.0424 71.4961 15.1415 71.4572 15.168C71.4183 15.1943 71.3517 15.2335 71.3091 15.255C71.2665 15.2765 71.2003 15.3027 71.162 15.3134C71.1237 15.324 71.0631 15.3364 71.0274 15.3409C70.9916 15.3454 70.9139 15.3424 70.8547 15.3345C70.7955 15.3266 70.6952 15.3028 70.6319 15.2817C70.5686 15.2607 70.4632 15.2182 70.3978 15.1871C70.3322 15.1561 70.2558 15.1128 70.2281 15.0908C70.2003 15.0688 70.144 15.0096 70.1028 14.9593C70.0618 14.9089 70.0073 14.8351 69.9817 14.7951C69.9563 14.7552 69.91 14.6718 69.8789 14.6096C69.848 14.5476 69.8047 14.4462 69.783 14.3843C69.7611 14.3224 69.7306 14.2159 69.715 14.1477L69.6864 14.0236L69.6797 11.2675L69.6728 8.51135L69.6369 8.43844C69.6162 8.39611 69.5743 8.34138 69.5372 8.308C69.502 8.27641 69.4416 8.23868 69.403 8.22423L69.3328 8.198H66.6162C64.2656 8.198 63.8794 8.20046 63.7488 8.21733C63.6658 8.22807 63.526 8.25455 63.438 8.27629C63.3501 8.29803 63.2198 8.33768 63.1486 8.36441C63.0773 8.39115 62.9547 8.44511 62.8759 8.48437C62.7971 8.52364 62.6828 8.5881 62.6218 8.62774C62.5608 8.66726 62.4577 8.74259 62.3928 8.79503C62.3281 8.84747 62.2345 8.93379 62.1849 8.98687C62.1353 9.04007 62.0638 9.13023 62.0259 9.18753C61.9882 9.24469 61.9255 9.36338 61.8869 9.45137C61.8483 9.53923 61.799 9.66661 61.7774 9.73427C61.7558 9.80193 61.7252 9.91703 61.7095 9.99005C61.6864 10.0974 61.6807 10.1645 61.6803 10.3402C61.68 10.5084 61.6852 10.5808 61.7035 10.6599C61.7165 10.7162 61.7445 10.8111 61.7657 10.871C61.7866 10.9308 61.8256 11.0228 61.8522 11.0756C61.8788 11.1283 61.9365 11.2261 61.9803 11.293C62.0241 11.3598 62.1347 11.5113 62.2261 11.6297C62.3174 11.748 62.4294 11.9006 62.4749 11.9686C62.5205 12.0367 62.5799 12.1384 62.6072 12.1946C62.6344 12.2509 62.674 12.3498 62.6951 12.4145C62.716 12.4791 62.7422 12.592 62.7531 12.6654C62.764 12.7389 62.773 12.869 62.773 12.9546C62.773 13.0401 62.7668 13.166 62.7593 13.2343C62.7519 13.3026 62.7339 13.4128 62.7198 13.4792C62.7054 13.5457 62.6764 13.6493 62.6553 13.7094C62.6342 13.7696 62.5884 13.8745 62.5536 13.9424C62.5188 14.0104 62.4546 14.114 62.411 14.1726C62.3674 14.2313 62.2857 14.324 62.2294 14.3788C62.1731 14.4335 62.0753 14.5154 62.012 14.5606C61.9487 14.6059 61.8308 14.6772 61.7498 14.7188C61.669 14.7605 61.5474 14.8151 61.4796 14.8403C61.4118 14.8654 61.2966 14.9034 61.2233 14.9245C61.15 14.9457 61.0348 14.9744 60.9673 14.9883C60.8996 15.0023 60.7892 15.0225 60.722 15.0332C60.6547 15.0441 60.5117 15.0613 60.4041 15.0714C60.2967 15.0817 60.0879 15.0938 59.9401 15.0986C59.7845 15.1036 59.5621 15.101 59.4113 15.0928C59.268 15.085 59.078 15.07 58.9888 15.0595C58.8998 15.0492 58.7593 15.029 58.6765 15.0145C58.5939 15.0002 58.4616 14.9717 58.3827 14.9512C58.3037 14.9308 58.1787 14.8934 58.1048 14.8681C58.031 14.8427 57.89 14.7819 57.7915 14.7326C57.693 14.6835 57.559 14.605 57.4935 14.5582C57.4281 14.5114 57.3288 14.428 57.2726 14.3728C57.2165 14.3175 57.1362 14.2254 57.0942 14.1681C57.0523 14.1108 56.9896 14.0087 56.9552 13.9413C56.9207 13.8739 56.8751 13.7695 56.854 13.7093C56.8329 13.6492 56.8039 13.5456 56.7896 13.4791C56.7754 13.4127 56.7568 13.2981 56.7484 13.2243C56.7388 13.1407 56.7358 13.0111 56.7405 12.879C56.7447 12.7629 56.757 12.6274 56.7681 12.5782C56.7791 12.529 56.8002 12.4512 56.8149 12.4056C56.8298 12.3599 56.8665 12.2706 56.8967 12.2073C56.9268 12.144 56.9887 12.0366 57.0343 11.9685C57.0799 11.9005 57.192 11.7479 57.2833 11.6296C57.3746 11.5112 57.4852 11.3597 57.5291 11.2929C57.5728 11.226 57.6315 11.1263 57.6593 11.071C57.6871 11.0158 57.7298 10.9113 57.7541 10.8386C57.7783 10.7661 57.8074 10.6472 57.8185 10.5745C57.8331 10.4795 57.8368 10.3957 57.8315 10.2762C57.8276 10.1847 57.8124 10.0524 57.7976 9.98201C57.7829 9.91167 57.7489 9.78787 57.7219 9.70705C57.6949 9.62622 57.6451 9.49947 57.611 9.42568C57.5769 9.35175 57.5297 9.25686 57.5062 9.21465C57.4825 9.17245 57.4311 9.09328 57.3918 9.03867C57.3526 8.98419 57.2624 8.88329 57.1915 8.81448C57.1206 8.74555 57.008 8.65295 56.9415 8.6087C56.875 8.56432 56.7646 8.49999 56.6963 8.46571C56.628 8.43144 56.5069 8.38092 56.4272 8.35355C56.3476 8.32604 56.2305 8.29152 56.1673 8.27681C56.1039 8.26197 55.9946 8.23986 55.9243 8.22758L55.7964 8.20518L52.9829 8.20218ZM53.191 9.05866C55.439 9.06262 55.7061 9.06532 55.8094 9.084C55.8727 9.0955 55.9705 9.11713 56.0268 9.13209C56.083 9.14693 56.1703 9.17634 56.2207 9.19719C56.271 9.21816 56.3474 9.25665 56.3904 9.28261C56.4333 9.30859 56.5027 9.35756 56.5445 9.39146C56.5864 9.42535 56.6476 9.48866 56.6806 9.53214C56.7134 9.57563 56.771 9.67448 56.8083 9.75186C56.8457 9.82923 56.8934 9.94523 56.9143 10.0096C56.9353 10.074 56.9588 10.1734 56.9666 10.2304C56.9767 10.3038 56.977 10.362 56.9676 10.4292C56.9603 10.4813 56.9434 10.5528 56.9301 10.5881C56.9167 10.6233 56.8838 10.6912 56.8571 10.7391C56.8304 10.787 56.7111 10.9547 56.5922 11.1118C56.4733 11.269 56.3357 11.459 56.2866 11.5339C56.2374 11.6088 56.1633 11.7397 56.1217 11.8246C56.0801 11.9095 56.0235 12.048 55.9957 12.1323C55.9681 12.2166 55.9338 12.3459 55.9196 12.4196C55.9053 12.4932 55.887 12.6311 55.8788 12.7257C55.8699 12.8282 55.8673 12.9706 55.8723 13.0771C55.877 13.1755 55.8894 13.3221 55.8999 13.4027C55.9104 13.4833 55.9309 13.6041 55.9453 13.6713C55.9598 13.7384 55.9943 13.8623 56.0218 13.9467C56.0494 14.0311 56.1084 14.175 56.1528 14.2665C56.1971 14.3579 56.2611 14.4758 56.2949 14.5286C56.3286 14.5813 56.3922 14.6709 56.4362 14.7274C56.4802 14.7839 56.566 14.8804 56.627 14.9417C56.688 15.0031 56.7908 15.0957 56.8554 15.1476C56.9201 15.1996 57.0278 15.2775 57.0946 15.3206C57.1615 15.3638 57.2826 15.4332 57.3639 15.4748C57.4452 15.5162 57.5747 15.576 57.6517 15.6073C57.7287 15.6386 57.8549 15.6845 57.9323 15.7094C58.0096 15.7342 58.1305 15.769 58.2008 15.7866C58.2712 15.8044 58.3863 15.8305 58.4566 15.8448C58.527 15.859 58.645 15.8797 58.7188 15.8908C58.7927 15.902 58.9337 15.9199 59.0321 15.9305C59.1306 15.9412 59.3906 15.9532 59.6098 15.9572C59.8635 15.9618 60.0916 15.9588 60.2365 15.9492C60.362 15.9407 60.5308 15.9255 60.6116 15.9153C60.6926 15.9049 60.8307 15.8844 60.9186 15.8697C61.0066 15.8549 61.157 15.8237 61.253 15.8002C61.3489 15.7766 61.4928 15.7364 61.5727 15.7106C61.6525 15.6849 61.7754 15.6409 61.8458 15.6131C61.9161 15.5851 62.0457 15.5256 62.1335 15.4808C62.2215 15.4361 62.3539 15.36 62.4277 15.3116C62.5016 15.2634 62.606 15.1882 62.6598 15.1447C62.7137 15.1012 62.8063 15.0172 62.8655 14.958C62.9247 14.8988 63.0053 14.811 63.0444 14.763C63.0835 14.715 63.1484 14.6269 63.1884 14.567C63.2284 14.5072 63.2999 14.3803 63.3473 14.285C63.3946 14.1896 63.4547 14.0474 63.4808 13.9688C63.5069 13.8901 63.5423 13.7639 63.5593 13.688C63.5764 13.6123 63.6002 13.4783 63.6121 13.3904C63.626 13.2867 63.634 13.1385 63.6346 12.9684C63.6349 12.8139 63.6285 12.6563 63.6184 12.5847C63.609 12.5178 63.5851 12.3969 63.5653 12.3161C63.5456 12.2353 63.5114 12.1202 63.4894 12.0603C63.4675 12.0005 63.4185 11.8883 63.3805 11.811C63.3425 11.7336 63.2659 11.6012 63.2103 11.5168C63.1545 11.4324 63.0136 11.2376 62.8971 11.0839C62.7804 10.9303 62.6622 10.7604 62.6342 10.7066C62.6064 10.6527 62.5748 10.577 62.564 10.5384C62.5533 10.4996 62.5409 10.4388 62.5364 10.4031C62.5319 10.3673 62.5349 10.2896 62.5428 10.2304C62.5507 10.1712 62.5745 10.0709 62.5955 10.0076C62.6164 9.94431 62.6613 9.83497 62.6952 9.76463C62.7291 9.69429 62.778 9.61244 62.8039 9.58277C62.8297 9.55311 62.9064 9.48723 62.9742 9.43633C63.0418 9.38542 63.1668 9.30856 63.2517 9.26559C63.3366 9.22262 63.4642 9.16877 63.5352 9.14601C63.6063 9.12313 63.7099 9.09511 63.7654 9.0836L63.8665 9.06274L66.344 9.05838L68.8216 9.05415L68.8259 11.5899L68.8301 14.1257L68.8566 14.2539C68.8712 14.3243 68.8983 14.4379 68.917 14.5062C68.9355 14.5746 68.9702 14.6813 68.9938 14.7432C69.0174 14.8051 69.0713 14.9245 69.1135 15.0087C69.1559 15.0929 69.2244 15.2135 69.2661 15.2768C69.3078 15.3401 69.386 15.4444 69.4399 15.5086C69.4938 15.5728 69.5711 15.6558 69.6117 15.6931C69.6522 15.7303 69.72 15.7863 69.7622 15.8175C69.8044 15.8487 69.8905 15.9002 69.9536 15.932C70.0166 15.9636 70.1331 16.015 70.2125 16.046C70.292 16.0771 70.4246 16.1193 70.5072 16.1398C70.5898 16.1604 70.718 16.1839 70.7918 16.1924C70.8677 16.2009 70.9818 16.2041 71.0543 16.1997C71.1249 16.1953 71.2285 16.1824 71.2845 16.1708C71.3406 16.1593 71.4354 16.1325 71.4952 16.1114C71.555 16.0904 71.6485 16.0508 71.703 16.0233C71.7575 15.9959 71.8653 15.9308 71.9425 15.8785C72.0199 15.8264 72.1795 15.7093 72.2975 15.6186C72.4155 15.5278 72.5465 15.4305 72.5887 15.4023C72.6309 15.374 72.7094 15.3269 72.7631 15.2975C72.8168 15.2681 72.9089 15.2264 72.9678 15.2049C73.0266 15.1834 73.1237 15.1544 73.1834 15.1406C73.2576 15.1233 73.3614 15.1131 73.5104 15.1081C73.6446 15.1036 73.7776 15.1066 73.8552 15.1156C73.9247 15.1238 74.0249 15.1396 74.078 15.1504C74.1311 15.1614 74.2293 15.1878 74.2961 15.209C74.363 15.2302 74.48 15.2794 74.5562 15.3182C74.6326 15.3571 74.7405 15.4227 74.7961 15.464C74.8519 15.5053 74.9421 15.5841 74.9964 15.6391C75.0509 15.6941 75.134 15.7934 75.1814 15.8597C75.2285 15.926 75.3013 16.0463 75.343 16.1273C75.3847 16.2081 75.4394 16.3296 75.4645 16.3973C75.4896 16.4648 75.525 16.5713 75.5433 16.6339C75.5616 16.6964 75.5902 16.8109 75.607 16.8883C75.6239 16.9656 75.6441 17.0692 75.6519 17.1185C75.6598 17.1677 75.6745 17.277 75.6845 17.3615C75.6945 17.4459 75.7094 17.6517 75.7176 17.8187C75.729 18.0504 75.7289 18.1955 75.7175 18.4305C75.7092 18.6001 75.6909 18.8288 75.6768 18.9389C75.6626 19.0491 75.637 19.2085 75.6199 19.2933C75.6028 19.378 75.5681 19.519 75.5429 19.6065C75.5177 19.6941 75.4765 19.8175 75.4516 19.8808C75.4265 19.9443 75.3741 20.0573 75.3351 20.1321C75.2961 20.2069 75.2284 20.3183 75.1847 20.3796C75.1409 20.4409 75.0569 20.54 74.998 20.5997C74.939 20.6596 74.8456 20.7422 74.7905 20.7832C74.7355 20.8244 74.6347 20.8866 74.5667 20.9214C74.4988 20.9561 74.3939 21.0019 74.3337 21.023C74.2736 21.0441 74.17 21.0733 74.1035 21.0876C74.0371 21.1019 73.9174 21.1205 73.8376 21.1289C73.754 21.1376 73.6102 21.1412 73.4987 21.1374C73.3922 21.1336 73.2647 21.1216 73.2154 21.1108C73.1662 21.0999 73.0856 21.0787 73.0364 21.0637C72.9871 21.0487 72.8835 21.0051 72.8062 20.9669C72.7288 20.9286 72.596 20.8471 72.5111 20.7855C72.4263 20.7241 72.2852 20.6185 72.1978 20.5508C72.1104 20.4832 71.9802 20.3896 71.9085 20.3426C71.8369 20.2957 71.7246 20.2321 71.6591 20.2013C71.5936 20.1705 71.5029 20.1331 71.4577 20.1184C71.4124 20.1037 71.3289 20.0817 71.2722 20.0696C71.1966 20.0532 71.113 20.0474 70.9581 20.0481C70.7902 20.0484 70.7197 20.0546 70.6128 20.0775C70.539 20.0933 70.4124 20.1282 70.3314 20.1552C70.2506 20.182 70.124 20.232 70.0501 20.266C69.9763 20.3002 69.8813 20.3474 69.8391 20.3709C69.7969 20.3946 69.7177 20.446 69.6631 20.4853C69.6086 20.5245 69.5076 20.6147 69.4388 20.6855C69.3698 20.7565 69.2753 20.8723 69.2285 20.9426C69.1817 21.0131 69.112 21.1367 69.0734 21.2176C69.0349 21.2984 68.9863 21.4163 68.9653 21.4796C68.9445 21.5429 68.9124 21.6612 68.8942 21.7427C68.8759 21.824 68.8522 21.965 68.8416 22.0559C68.825 22.198 68.8223 22.5696 68.8223 24.7055V27.1898H50.6873V24.7172C50.6873 23.0674 50.6828 22.1983 50.6737 22.1051C50.6662 22.0284 50.6458 21.8941 50.6284 21.8067C50.611 21.7194 50.5738 21.5777 50.5459 21.4917C50.5179 21.4058 50.4643 21.2729 50.4266 21.1964C50.389 21.1199 50.3219 21.0032 50.2775 20.9369C50.2331 20.8707 50.1406 20.7583 50.0722 20.6873C50.0038 20.6162 49.902 20.5251 49.8461 20.4848C49.7901 20.4444 49.7046 20.3897 49.6563 20.3631C49.6078 20.3365 49.5078 20.2879 49.4339 20.255C49.3601 20.2221 49.2393 20.1752 49.1653 20.1507C49.0915 20.1261 48.9707 20.0937 48.8968 20.0788C48.823 20.0638 48.6906 20.0485 48.6026 20.0448C48.4904 20.0402 48.4033 20.0441 48.3106 20.0584C48.238 20.0696 48.1171 20.0992 48.042 20.1243C47.967 20.1494 47.8516 20.1986 47.7858 20.2338C47.7198 20.2689 47.6219 20.3273 47.5683 20.3633C47.5146 20.3994 47.3701 20.5064 47.247 20.6013C47.1239 20.6961 46.9713 20.8079 46.908 20.8497C46.8447 20.8914 46.7412 20.9502 46.6778 20.9803C46.6145 21.0105 46.5254 21.0472 46.4796 21.062C46.434 21.0767 46.3562 21.0979 46.307 21.109C46.2548 21.1207 46.1239 21.1321 45.9936 21.1362C45.8249 21.1416 45.7304 21.138 45.61 21.1221C45.5221 21.1106 45.4049 21.0895 45.3497 21.0754C45.2946 21.0614 45.2036 21.0331 45.1477 21.0128C45.0918 20.9923 44.9922 20.9473 44.9262 20.9126C44.8604 20.8778 44.7614 20.8157 44.7064 20.7744C44.6514 20.7331 44.5626 20.6549 44.5092 20.6008C44.4558 20.5466 44.3739 20.4488 44.3272 20.3834C44.2805 20.3179 44.2082 20.1982 44.1665 20.1174C44.1248 20.0364 44.0701 19.9151 44.045 19.8474C44.02 19.7799 43.9846 19.6733 43.9663 19.6108C43.948 19.5483 43.9193 19.4338 43.9026 19.3564C43.8857 19.279 43.8655 19.1754 43.8577 19.1262C43.8498 19.077 43.835 18.9676 43.8251 18.8832C43.8151 18.7988 43.8001 18.593 43.7919 18.426C43.7807 18.1948 43.7807 18.0497 43.7919 17.8185C43.8001 17.6515 43.8151 17.4457 43.8251 17.3613C43.835 17.2768 43.8498 17.1675 43.8577 17.1183C43.8655 17.069 43.8837 16.974 43.898 16.9072C43.9122 16.8403 43.9376 16.7364 43.9544 16.6761C43.9711 16.6159 44.0028 16.5151 44.025 16.4523C44.047 16.3895 44.0962 16.2724 44.1342 16.1919C44.1723 16.1116 44.2405 15.9902 44.2857 15.9223C44.331 15.8543 44.4085 15.754 44.4581 15.6994C44.5078 15.6448 44.5872 15.5677 44.6348 15.5279C44.6822 15.4881 44.7587 15.4319 44.8046 15.4028C44.8505 15.3738 44.9283 15.3299 44.9773 15.3054C45.0262 15.2808 45.1096 15.245 45.1623 15.2261C45.2151 15.207 45.3187 15.1779 45.3925 15.1614C45.4665 15.1448 45.5827 15.1251 45.651 15.1175C45.7193 15.1101 45.8459 15.1039 45.9324 15.1041C46.0188 15.1041 46.1463 15.1126 46.2158 15.1231C46.2852 15.1336 46.3818 15.1539 46.4305 15.1685C46.4791 15.183 46.5633 15.2138 46.6175 15.2371C46.6718 15.2604 46.7621 15.3066 46.8182 15.3398C46.8742 15.373 46.9712 15.4377 47.0338 15.4837C47.0963 15.5296 47.2145 15.6192 47.2964 15.6828C47.3782 15.7465 47.5057 15.8385 47.5795 15.8875C47.6534 15.9364 47.7589 15.9992 47.8142 16.0269C47.8695 16.0547 47.9739 16.0973 48.0465 16.1216C48.119 16.1459 48.235 16.1743 48.3042 16.1846C48.3733 16.1951 48.476 16.2037 48.5323 16.2037C48.5886 16.2037 48.6864 16.1974 48.7497 16.1897C48.813 16.1821 48.9301 16.159 49.0099 16.1386C49.0897 16.1181 49.2203 16.0758 49.3001 16.0446C49.3798 16.0134 49.4929 15.964 49.5514 15.9348C49.6099 15.9057 49.6923 15.8569 49.7345 15.8266C49.7767 15.7963 49.8483 15.7379 49.8935 15.6967C49.9387 15.6555 50.0189 15.5701 50.0716 15.5068C50.1245 15.4435 50.2017 15.3399 50.2434 15.2766C50.285 15.2133 50.3536 15.0927 50.396 15.0085C50.4382 14.9243 50.4922 14.8049 50.5157 14.743C50.5394 14.6811 50.574 14.5744 50.5926 14.506C50.6112 14.4377 50.6383 14.3241 50.6529 14.2537L50.6794 14.1255L50.6836 11.5897L50.688 9.05395L53.191 9.05866ZM55.4577 18.5608C54.6044 18.5583 54.4854 18.5605 54.4346 18.5783C54.4029 18.5895 54.3536 18.6146 54.3249 18.6345C54.2961 18.6542 54.2569 18.691 54.2377 18.7163C54.2184 18.7415 54.1904 18.7894 54.1753 18.8227C54.1547 18.8683 54.1478 18.9085 54.1476 18.9855C54.1475 19.0693 54.1535 19.101 54.181 19.1601C54.1994 19.1998 54.2379 19.2558 54.2665 19.2843C54.2951 19.3129 54.3489 19.3523 54.3862 19.372L54.4537 19.4076H56.4232L56.4908 19.372C56.528 19.3523 56.5818 19.3129 56.6105 19.2843C56.639 19.2558 56.6774 19.1998 56.6955 19.1601C56.7222 19.1019 56.7288 19.0679 56.7292 18.9855C56.7294 18.9011 56.7237 18.8704 56.6958 18.8103C56.6771 18.7703 56.6369 18.7126 56.6065 18.6822C56.5761 18.6517 56.5224 18.6126 56.4872 18.5952L56.4232 18.5635L55.4577 18.5608ZM64.0906 18.5608C63.2373 18.5583 63.1184 18.5605 63.0676 18.5783C63.0359 18.5895 62.9865 18.6146 62.9578 18.6345C62.9291 18.6542 62.8898 18.691 62.8706 18.7163C62.8513 18.7415 62.8233 18.7894 62.8082 18.8227C62.7876 18.8683 62.7807 18.9085 62.7806 18.9855C62.7805 19.0693 62.7865 19.101 62.814 19.1601C62.8324 19.1998 62.8709 19.2558 62.8994 19.2843C62.928 19.3129 62.9819 19.3523 63.0191 19.372L63.0866 19.4076H65.0562L65.1237 19.372C65.1609 19.3523 65.2148 19.3129 65.2434 19.2843C65.2719 19.2558 65.3103 19.1998 65.3285 19.1601C65.3552 19.1019 65.3617 19.0679 65.3621 18.9855C65.3623 18.9011 65.3566 18.8704 65.3287 18.8103C65.31 18.7703 65.2699 18.7126 65.2394 18.6822C65.209 18.6517 65.1553 18.6126 65.1201 18.5952L65.0562 18.5635L64.0906 18.5608ZM57.1945 21.1462C57.1488 21.1428 57.0878 21.1456 57.0591 21.1524C57.0303 21.1592 56.9758 21.1833 56.9381 21.2061C56.9002 21.2287 56.8475 21.2761 56.8209 21.3112C56.7943 21.3464 56.7631 21.4037 56.7515 21.4385C56.7338 21.4913 56.7317 21.5364 56.7379 21.7134C56.7423 21.8342 56.7566 21.9883 56.7714 22.0722C56.7857 22.153 56.8172 22.2911 56.8412 22.3791C56.8654 22.467 56.9092 22.5994 56.9385 22.6733C56.9677 22.7471 57.0278 22.8771 57.0721 22.9622C57.1163 23.0471 57.1883 23.1704 57.2321 23.236C57.276 23.3015 57.3439 23.396 57.383 23.4459C57.4223 23.4958 57.5325 23.6148 57.6282 23.7104C57.7237 23.8059 57.8607 23.9277 57.9323 23.9809C58.0041 24.0341 58.1162 24.1108 58.1817 24.1515C58.2472 24.192 58.371 24.2589 58.4567 24.3001C58.5425 24.3411 58.6896 24.4005 58.7836 24.4319C58.8777 24.4634 59.0176 24.5033 59.0945 24.5206C59.1715 24.538 59.3061 24.5611 59.3939 24.572C59.4816 24.5829 59.6429 24.5917 59.7524 24.5917C59.8618 24.5917 60.0231 24.5828 60.1109 24.572C60.1986 24.5612 60.3355 24.5378 60.4151 24.5201C60.4948 24.5023 60.6242 24.466 60.7029 24.4392C60.7815 24.4126 60.8891 24.3725 60.9418 24.35C60.9946 24.3273 61.0965 24.2778 61.1685 24.2398C61.2404 24.2019 61.3526 24.135 61.4179 24.0912C61.4831 24.0475 61.5883 23.9702 61.6516 23.9196C61.7149 23.8688 61.8341 23.7578 61.9166 23.6729C61.9991 23.588 62.1093 23.4611 62.1615 23.3908C62.2138 23.3206 62.2897 23.2096 62.3304 23.1441C62.371 23.0786 62.4382 22.954 62.4798 22.8673C62.5214 22.7806 62.5831 22.6252 62.6172 22.522C62.6511 22.4188 62.6934 22.2624 62.711 22.1745C62.7288 22.0865 62.7502 21.9507 62.7585 21.8724C62.7668 21.7943 62.7713 21.6677 62.7686 21.5911L62.7635 21.4519L62.72 21.3709C62.6959 21.3263 62.6526 21.2703 62.6234 21.2465C62.5942 21.2226 62.5421 21.1902 62.5074 21.1745C62.4593 21.1528 62.4203 21.146 62.3422 21.1459C62.2583 21.1457 62.2268 21.1517 62.167 21.1795C62.1269 21.1981 62.0692 21.2382 62.0388 21.2686C62.0084 21.2991 61.9699 21.3528 61.9534 21.388C61.9287 21.4405 61.9203 21.491 61.9063 21.6706C61.897 21.7908 61.8778 21.9449 61.8636 22.0129C61.8494 22.0808 61.8202 22.1896 61.7987 22.2546C61.7774 22.3195 61.7225 22.4476 61.677 22.539C61.6313 22.6304 61.5552 22.7599 61.5077 22.8266C61.4602 22.8934 61.3551 23.0142 61.2741 23.0952C61.1932 23.1761 61.0723 23.281 61.0056 23.3283C60.9388 23.3755 60.8169 23.4491 60.7345 23.4918C60.6523 23.5344 60.5147 23.5924 60.4287 23.6207C60.3427 23.649 60.2086 23.6829 60.1306 23.696C60.0527 23.7093 59.9286 23.724 59.8546 23.7288C59.7761 23.7339 59.6567 23.7312 59.5669 23.7224C59.4825 23.7142 59.3616 23.6959 59.2983 23.6821C59.235 23.6682 59.1249 23.6374 59.0535 23.6134C58.9822 23.5896 58.8699 23.5432 58.8041 23.5102C58.7383 23.4774 58.6356 23.4188 58.5757 23.38C58.516 23.3414 58.4354 23.2836 58.3967 23.2515C58.358 23.2195 58.2928 23.1612 58.2518 23.1219C58.2107 23.0827 58.141 23.0073 58.0969 22.9547C58.0528 22.9018 57.9877 22.8155 57.9525 22.7628C57.9172 22.71 57.8593 22.6088 57.8236 22.5377C57.788 22.4667 57.7389 22.3511 57.7145 22.2808C57.6899 22.2104 57.6581 22.0985 57.6438 22.0319C57.6293 21.9654 57.6117 21.845 57.6046 21.7645C57.5974 21.684 57.5898 21.5836 57.5875 21.5414C57.5847 21.4936 57.5707 21.4375 57.55 21.3924C57.5317 21.3528 57.4926 21.296 57.463 21.2665C57.4335 21.2369 57.3796 21.1992 57.3434 21.1827C57.3057 21.1654 57.2422 21.1498 57.1945 21.1462Z" fill="#D38AD5"/>
</svg>
